/* XPM */
static char *result[] = {
/* columns rows colors chars-per-pixel */
"64 64 2 1 ",
"  c #E3AC3D",
". c white",
/* pixels */
"                                                                ",
"                                                                ",
"                                                                ",
"                                                                ",
"                                                                ",
"                                                                ",
"                                                                ",
"                                                                ",
"                                                                ",
"               ..................................               ",
"               ..................................               ",
"               ..................................               ",
"               ..................................               ",
"               ..................................               ",
"               ..................................               ",
"         .............                    .............         ",
"         .............                    .............         ",
"         .............                    .............         ",
"         .............                    .............         ",
"         .............                    .............         ",
"         .............                    .............         ",
"                                    .............               ",
"                                    .............               ",
"                                    .............               ",
"                                    .............               ",
"                                    .............               ",
"                                    .............               ",
"                                    .............               ",
"                      ....................                      ",
"                      ....................                      ",
"                      ....................                      ",
"                      ....................                      ",
"                      ....................                      ",
"                      ....................                      ",
"                      ....................                      ",
"               .............                                    ",
"               .............                                    ",
"               .............                                    ",
"               .............                                    ",
"               .............                                    ",
"               .............                                    ",
"         .............                                          ",
"         .............                                          ",
"         .............                                          ",
"         .............                                          ",
"         .............                                          ",
"         .............                                          ",
"         .............                                          ",
"         ..............................................         ",
"         ..............................................         ",
"         ..............................................         ",
"         ..............................................         ",
"         ..............................................         ",
"         ..............................................         ",
"         ..............................................         ",
"                                                                ",
"                                                                ",
"                                                                ",
"                                                                ",
"                                                                ",
"                                                                ",
"                                                                ",
"                                                                ",
"                                                                "
};
