/* XPM */
static char *_7ae638628304d9ab580c5977b8bdaf5dPGZixVZ7K9PNtTn[] = {
/* columns rows colors chars-per-pixel */
"64 64 2 1 ",
"  c #E3AC3D",
". c white",
/* pixels */
"                                                                ",
"                                                                ",
"                                                                ",
"                                                                ",
"                                                                ",
"                                                                ",
"                                                                ",
"                                                                ",
"                                                                ",
"                                                                ",
"              ..................................                ",
"              ..................................                ",
"              ..................................                ",
"              ..................................                ",
"              ..................................                ",
"              ..................................                ",
"         ............                     .............         ",
"         ............                     .............         ",
"         ............                     .............         ",
"         ............                     .............         ",
"         ............                     .............         ",
"         ............                     .............         ",
"         ............                                           ",
"         ............                                           ",
"         ............                                           ",
"         ............                                           ",
"         ............                                           ",
"         ............                                           ",
"         ............                                           ",
"         .......................................                ",
"         .......................................                ",
"         .......................................                ",
"         .......................................                ",
"         .......................................                ",
"         .......................................                ",
"         .......................................                ",
"         ............                     .............         ",
"         ............                     .............         ",
"         ............                     .............         ",
"         ............                     .............         ",
"         ............                     .............         ",
"         ............                     .............         ",
"         ............                     .............         ",
"         ............                     .............         ",
"         ............                     .............         ",
"         ............                     .............         ",
"         ............                     .............         ",
"         ............                     .............         ",
"               ......                     ......                ",
"               .................................                ",
"               .................................                ",
"               .................................                ",
"               .................................                ",
"               .................................                ",
"               .................................                ",
"               .................................                ",
"                                                                ",
"                                                                ",
"                                                                ",
"                                                                ",
"                                                                ",
"                                                                ",
"                                                                ",
"                                                                "
};
