/* XPM */
static char *_717170f772a4e38ba70fdcc519d9237YzvcbynqrAFh4dUL[] = {
/* columns rows colors chars-per-pixel */
"64 64 2 1 ",
"  c #E3AC3D",
". c white",
/* pixels */
"                                                                ",
"                                                                ",
"                                                                ",
"                                                                ",
"                                                                ",
"                                                                ",
"                                                                ",
"                                                                ",
"                                                                ",
"          ...............................................       ",
"          ...............................................       ",
"          ...............................................       ",
"          ...............................................       ",
"          ...............................................       ",
"          ...............................................       ",
"          ............                      .............       ",
"          ............                      .............       ",
"          ............                      .............       ",
"          ............                      .............       ",
"          ............                      .............       ",
"          ............                      .............       ",
"                                     .............              ",
"                                     .............              ",
"                                     .............              ",
"                                     .............              ",
"                                     .............              ",
"                                     .............              ",
"                                     .............              ",
"                                     .....                      ",
"                              ............                      ",
"                              ............                      ",
"                              ............                      ",
"                              ............                      ",
"                              ............                      ",
"                              ............                      ",
"                       .............                            ",
"                       .............                            ",
"                       .............                            ",
"                       .............                            ",
"                       .............                            ",
"                       .............                            ",
"                       .............                            ",
"                .............                                   ",
"                .............                                   ",
"                .............                                   ",
"                .............                                   ",
"                .............                                   ",
"                .............                                   ",
"                ......                                          ",
"          ............                                          ",
"          ............                                          ",
"          ............                                          ",
"          ............                                          ",
"          ............                                          ",
"          ............                                          ",
"                                                                ",
"                                                                ",
"                                                                ",
"                                                                ",
"                                                                ",
"                                                                ",
"                                                                ",
"                                                                ",
"                                                                "
};
