/* XPM */
static char *ba1ed47d3b794645a596904c3ecf472elwnkuVkZv8xzmSRn[] = {
/* columns rows colors chars-per-pixel */
"64 64 2 1 ",
"  c #E3AC3D",
". c white",
/* pixels */
"                                                                ",
"                                                                ",
"                                                                ",
"                                                                ",
"                                                                ",
"                                                                ",
"                                                                ",
"                                                                ",
"                                                                ",
"              ...................................               ",
"              ...................................               ",
"              ...................................               ",
"              ...................................               ",
"              ...................................               ",
"              ...................................               ",
"        .............                    ..............         ",
"        .............                    ..............         ",
"        .............                    ..............         ",
"        .............                    ..............         ",
"        .............                    ..............         ",
"        .............                    ..............         ",
"        .............                    ..............         ",
"        .............                    ..............         ",
"        .............                    ..............         ",
"        .............                    ..............         ",
"        .............                    ..............         ",
"        .............                    ..............         ",
"        .............                    ..............         ",
"        .............                    ..............         ",
"              ...................................               ",
"              ...................................               ",
"              ...................................               ",
"              ...................................               ",
"              ...................................               ",
"              ...................................               ",
"              ...................................               ",
"        .............                    ..............         ",
"        .............                    ..............         ",
"        .............                    ..............         ",
"        .............                    ..............         ",
"        .............                    ..............         ",
"        .............                    ..............         ",
"        .............                    ..............         ",
"        .............                    ..............         ",
"        .............                    ..............         ",
"        .............                    ..............         ",
"        .............                    ..............         ",
"        .............                    ..............         ",
"        .............                    ..............         ",
"        .............                    ..............         ",
"              ...................................               ",
"              ...................................               ",
"              ...................................               ",
"              ...................................               ",
"              ...................................               ",
"              ...................................               ",
"                                                                ",
"                                                                ",
"                                                                ",
"                                                                ",
"                                                                ",
"                                                                ",
"                                                                ",
"                                                                "
};
