/* XPM */
static char *_0427b8081a14365a46d3a445b43484eVQxhDpVZhlKTurYZ[] = {
/* columns rows colors chars-per-pixel */
"64 64 3 1 ",
"  c #E3AC3D",
". c #CBA673",
"X c white",
/* pixels */
"                                                                ",
"                                                                ",
"                                                                ",
"                                                                ",
"                                                                ",
"                                                                ",
"                                                                ",
"                                                                ",
"                                                                ",
"               XXXXXXXXXXXXXXXXXXXXXXXXXXXXXXXXXXX              ",
"               XXXXXXXXXXXXXXXXXXXXXXXXXXXXXXXXXXX              ",
"               XXXXXXXXXXXXXXXXXXXXXXXXXXXXXXXXXXX              ",
"               XXXXXXXXXXXXXXXXXXXXXXXXXXXXXXXXXXX              ",
"               XXXXXXXXXXXXXXXXXXXXXXXXXXXXXXXXXXX              ",
"              .XXXXXXXXXXXXXXXXXXXXXXXXXXXXXXXXXXX              ",
"         XXXXXXXXXXXXX                     XXXXXXXXXXXXX        ",
"         XXXXXXXXXXXXX                     XXXXXXXXXXXXX        ",
"         XXXXXXXXXXXXX                     XXXXXXXXXXXXX        ",
"         XXXXXXXXXXXXX                     XXXXXXXXXXXXX        ",
"         XXXXXXXXXXXXX                     XXXXXXXXXXXXX        ",
"         XXXXXXXXXXXXX                     XXXXXXXXXXXXX        ",
"         XXXXXXXXXXXXX                     XXXXXXXXXXXXX        ",
"         XXXXXXXXXXXXX                     XXXXXXXXXXXXX        ",
"         XXXXXXXXXXXXX                     XXXXXXXXXXXXX        ",
"         XXXXXXXXXXXXX                     XXXXXXXXXXXXX        ",
"         XXXXXXXXXXXXX                     XXXXXXXXXXXXX        ",
"         XXXXXXXXXXXXX                     XXXXXXXXXXXXX        ",
"         XXXXXXXXXXXXX                     XXXXXXXXXXXXX        ",
"               XXXXXXXXXXXXXXXXXXXXXXXXXXXXXXXXXXXXXXXXX        ",
"               XXXXXXXXXXXXXXXXXXXXXXXXXXXXXXXXXXXXXXXXX        ",
"               XXXXXXXXXXXXXXXXXXXXXXXXXXXXXXXXXXXXXXXXX        ",
"               XXXXXXXXXXXXXXXXXXXXXXXXXXXXXXXXXXXXXXXXX        ",
"               XXXXXXXXXXXXXXXXXXXXXXXXXXXXXXXXXXXXXXXXX        ",
"               XXXXXXXXXXXXXXXXXXXXXXXXXXXXXXXXXXXXXXXXX        ",
"               XXXXXXXXXXXXXXXXXXXXXXXXXXXXXXXXXXXXXXXXX        ",
"                                           XXXXXXXXXXXXX        ",
"                                           XXXXXXXXXXXXX        ",
"                                           XXXXXXXXXXXXX        ",
"                                           XXXXXXXXXXXXX        ",
"                                           XXXXXXXXXXXXX        ",
"                                           XXXXXXXXXXXXX        ",
"                                           XXXXXXXXXXXXX        ",
"         XXXXXXXXXXXXX                     XXXXXXXXXXXXX        ",
"         XXXXXXXXXXXXX                     XXXXXXXXXXXXX        ",
"         XXXXXXXXXXXXX                     XXXXXXXXXXXXX        ",
"         XXXXXXXXXXXXX                     XXXXXXXXXXXXX        ",
"         XXXXXXXXXXXXX                     XXXXXXXXXXXXX        ",
"         XXXXXXXXXXXXX                     XXXXXXXXXXXXX        ",
"         XXXXXXXXXXXXX                     XXXXXXX              ",
"               XXXXXXXXXXXXXXXXXXXXXXXXXXXXXXXXXXX              ",
"               XXXXXXXXXXXXXXXXXXXXXXXXXXXXXXXXXXX              ",
"               XXXXXXXXXXXXXXXXXXXXXXXXXXXXXXXXXXX              ",
"               XXXXXXXXXXXXXXXXXXXXXXXXXXXXXXXXXXX              ",
"               XXXXXXXXXXXXXXXXXXXXXXXXXXXXXXXXXXX              ",
"               XXXXXXXXXXXXXXXXXXXXXXXXXXXXXXXXXXX              ",
"                                                                ",
"                                                                ",
"                                                                ",
"                                                                ",
"                                                                ",
"                                                                ",
"                                                                ",
"                                                                ",
"                                                                "
};
