/* XPM */
static char *result[] = {
/* columns rows colors chars-per-pixel */
"64 64 5 1 ",
"  c #505A1E",
". c #68762D",
"X c #7F9239",
"o c #CA9436",
"O c #E3AC3D",
/* pixels */
"OOOOOOOOXXXXXXXXXXXXXXXXXXXXXXXXXXXXXXXXXXXXXXXXXXXXXXXXOOOOOOOO",
"OOOOOOOOXXXXXXXXXXXXXXXXXXXXXXXXXXXXXXXXXXXXXXXXXXXXXXXXOOOOOOOO",
"OOOOOOOOXXXXXXXXXXXXXXXXXXXXXXXXXXXXXXXXXXXXXXXXXXXXXXXXOOOOOOOO",
"OOOOOOOOXXXXXXXXXXXXXXXXXXXXXXXXXXXXXXXXXXXXXXXXXXXXXXXXOOOOOOOO",
"OOOOOOOOXXXXXXXXXXXXXXXXXXXXXXXXXXXXXXXXXXXXXXXXXXXXXXXXOOOOOOOO",
"OOOOOOOOXXXXXXXXXXXXXXXXXXXXXXXXXXXXXXXXXXXXXXXXXXXXXXXXOOOOOOOO",
"OOOOOOOOXXXXXXXXXXXXXXXXXXXXXXXXXXXXXXXXXXXXXXXXXXXXXXXXOOOOOOOO",
"OOOOOOOOXXXXXXXXXXXXXXXXXXXXXXXXXXXXXXXXXXXXXXXXXXXXXXXXOOOOOOOO",
"OOOOOOOOXXXXXXXXXXXXXXXXXXXXXXXXXXXXXXXXXXXXXXXXXXXXXXXXOOOOOOOO",
"OOOOOOOOXXXXXXXXXXXXXXXXXXXXXXXXXXXXXXXXXXXXXXXXXXXXXXXXOOOOOOOO",
"OOOOOOOOXXXXXXXXXXXXXXXXXXXXXXXXXXXXXXXXXXXXXXXXXXXXXXXXOOOOOOOO",
"OOOOOOOOXXXXXXXXXXXXXXXXXXXXXXXXXXXXXXXXXXXXXXXXXXXXXXXXOOOOOOOO",
"OOOOOOOOXXXXXXXXXXXXXXXXXXXXXXXXXXXXXXXXXXXXXXXXXXXXXXXXOOOOOOOO",
"OOOOOOOOXXXXXXXXXXXXXXXXXXXXXXXXXXXXXXXXXXXXXXXXXXXXXXXXOOOOOOOO",
"OOOOOOOOXXXXXXXXXXXXXXXXXXXXXXXXXXXXXXXXXXXXXXXXXXXXXXXXOOOOOOOO",
"OOOOOOOOXXXXXXXXXXXXXXXXXXXXXXXXXXXXXXXXXXXXXXXXXXXXXXXXOOOOOOOO",
"OOOOOOOOXXXXXXXXXXXXXXXXXXXXXXXXXXXXXXXXXXXXXXXXXXXXXXXXOOOOOOOO",
"OOOOOOOOXXXXXXXXXXXXXXXXXXXXXXXXXXXXXXXXXXXXXXXXXXXXXXXXOOOOOOOO",
"OOOOOOOOXXXXXXXXXXXXXXXXXXXXXXXXXXXXXXXXXXXXXXXXXXXXXXXXOOOOOOOO",
"OOOOOOOOXXXXXXXXXXXXXXXXXXXXXXXXXXXXXXXXXXXXXXXXXXXXXXXXOOOOOOOO",
"OOOOOOOO................................................OOOOOOOO",
"OOOOOOOO................................................OOOOOOOO",
"OOOOOOOO................................................OOOOOOOO",
"OOOOOOOO................................................OOOOOOOO",
"OOOOOOOO................................................OOOOOOOO",
"OOOOOOOO................................................OOOOOOOO",
"OOOOOOOO................................................OOOOOOOO",
"OOOOOOOO................................................OOOOOOOO",
"oooooooo................................    ............OOOOOOOO",
"oooooooo................................    ............OOOOOOOO",
"oooooooo................................    ............OOOOOOOO",
"oooooooo................................    ............OOOOOOOO",
"oooooooo................................................OOOOOOOO",
"oooooooo................................................OOOOOOOO",
"oooooooo................................................OOOOOOOO",
"oooooooo................................................OOOOOOOO",
"oooooooo........    ....................................OOOOOOOO",
"oooooooo........    ....................................OOOOOOOO",
"oooooooo........    ....................................OOOOOOOO",
"oooooooo........    ....................................OOOOOOOO",
"oooooooo................................................OOOOOOOO",
"oooooooo................................................OOOOOOOO",
"oooooooo................................................OOOOOOOO",
"oooooooo................................................OOOOOOOO",
"oooooooo................................................OOOOOOOO",
"oooooooo................................................OOOOOOOO",
"oooooooo................................................OOOOOOOO",
"oooooooo................................................OOOOOOOO",
"oooooooo................................................OOOOOOOO",
"oooooooo................................................OOOOOOOO",
"oooooooo................................................OOOOOOOO",
"oooooooo................................................OOOOOOOO",
"oooooooo........................    ....................OOOOOOOO",
"oooooooo........................    ....................OOOOOOOO",
"oooooooo........................    ....................OOOOOOOO",
"oooooooo........................    ....................OOOOOOOO",
"oooooooo................................................OOOOOOOO",
"oooooooo................................................OOOOOOOO",
"oooooooo................................................OOOOOOOO",
"oooooooo................................................OOOOOOOO",
"ooooooooooooooooooooooooooooooooooooooooooooooooooooOOOOOOOOOOOO",
"ooooooooooooooooooooooooooooooooooooooooooooooooooooOOOOOOOOOOOO",
"ooooooooooooooooooooooooooooooooooooooooooooooooooooOOOOOOOOOOOO",
"ooooooooooooooooooooooooooooooooooooooooooooooooooooOOOOOOOOOOOO"
};
