/* XPM */
static char *result[] = {
/* columns rows colors chars-per-pixel */
"64 64 4 1 ",
"  c #875D2F",
". c #AB743A",
"X c #CA9436",
"o c #E3AC3D",
/* pixels */
"oooooooooooooooooooooooooooooooooooooooooooooooooooooooooooooooo",
"oooooooooooooooooooooooooooooooooooooooooooooooooooooooooooooooo",
"oooooooooooooooooooooooooooooooooooooooooooooooooooooooooooooooo",
"oooooooooooooooooooooooooooooooooooooooooooooooooooooooooooooooo",
"oooooooooooooooo................................oooooooooooooooo",
"oooooooooooooooo................................oooooooooooooooo",
"oooooooooooooooo................................oooooooooooooooo",
"oooooooooooooooo................................oooooooooooooooo",
"oooooooooooo........................................oooooooooooo",
"oooooooooooo........................................oooooooooooo",
"oooooooooooo........................................oooooooooooo",
"oooooooooooo........................................oooooooooooo",
"oooooooo................................................oooooooo",
"oooooooo................................................oooooooo",
"oooooooo................................................oooooooo",
"oooooooo................................................oooooooo",
"oooooooo................................................oooooooo",
"oooooooo................................................oooooooo",
"oooooooo................................................oooooooo",
"oooooooo................................................oooooooo",
"oooooooo................................................oooooooo",
"oooooooo................................................oooooooo",
"oooooooo................................................oooooooo",
"oooooooo................................................oooooooo",
"oooooooo................................................oooooooo",
"oooooooo................................................oooooooo",
"oooooooo................................................oooooooo",
"oooooooo................................................oooooooo",
"XXXXXXXX................................................oooooooo",
"XXXXXXXX................................................oooooooo",
"XXXXXXXX................................................oooooooo",
"XXXXXXXX................................................oooooooo",
"XXXXXXXX................................................oooooooo",
"XXXXXXXX................................................oooooooo",
"XXXXXXXX................................................oooooooo",
"XXXXXXXX................................................oooooooo",
"XXXXXXXX    ........................................    oooooooo",
"XXXXXXXX    ........................................    oooooooo",
"XXXXXXXX    ........................................    oooooooo",
"XXXXXXXX    ........................................    oooooooo",
"XXXXXXXX        ................................        oooooooo",
"XXXXXXXX        ................................        oooooooo",
"XXXXXXXX        ................................        oooooooo",
"XXXXXXXX        ................................        oooooooo",
"XXXXXXXX                                                oooooooo",
"XXXXXXXX                                                oooooooo",
"XXXXXXXX                                                oooooooo",
"XXXXXXXX                                                oooooooo",
"XXXXXXXXXXXX                                        oooooooooooo",
"XXXXXXXXXXXX                                        oooooooooooo",
"XXXXXXXXXXXX                                        oooooooooooo",
"XXXXXXXXXXXX                                        oooooooooooo",
"XXXXXXXXXXXXXXXX                                XXXXoooooooooooo",
"XXXXXXXXXXXXXXXX                                XXXXoooooooooooo",
"XXXXXXXXXXXXXXXX                                XXXXoooooooooooo",
"XXXXXXXXXXXXXXXX                                XXXXoooooooooooo",
"XXXXXXXXXXXXXXXXXXXXXXXXXXXXXXXXXXXXXXXXXXXXXXXXXXXXoooooooooooo",
"XXXXXXXXXXXXXXXXXXXXXXXXXXXXXXXXXXXXXXXXXXXXXXXXXXXXoooooooooooo",
"XXXXXXXXXXXXXXXXXXXXXXXXXXXXXXXXXXXXXXXXXXXXXXXXXXXXoooooooooooo",
"XXXXXXXXXXXXXXXXXXXXXXXXXXXXXXXXXXXXXXXXXXXXXXXXXXXXoooooooooooo",
"XXXXXXXXXXXXXXXXXXXXXXXXXXXXXXXXXXXXXXXXXXXXXXXXXXXXoooooooooooo",
"XXXXXXXXXXXXXXXXXXXXXXXXXXXXXXXXXXXXXXXXXXXXXXXXXXXXoooooooooooo",
"XXXXXXXXXXXXXXXXXXXXXXXXXXXXXXXXXXXXXXXXXXXXXXXXXXXXoooooooooooo",
"XXXXXXXXXXXXXXXXXXXXXXXXXXXXXXXXXXXXXXXXXXXXXXXXXXXXoooooooooooo"
};
