/* XPM */
static char *e588049732034db7d4cd801ff8834f76x9EHNJkGvbI5nlwZ[] = {
/* columns rows colors chars-per-pixel */
"64 64 6 1 ",
"  c #875D2F",
". c #AB743A",
"X c #CA9436",
"o c #E3AC3D",
"O c #DE789D",
"+ c #EB9DBA",
/* pixels */
"oooooooooooooooooooooooooooooooooooooooooooooooooooooooooooooooo",
"oooooooooooooooooooooooooooooooooooooooooooooooooooooooooooooooo",
"oooooooooooooooooooooooooooooooooooooooooooooooooooooooooooooooo",
"oooooooooooooooooooooooooooooooooooooooooooooooooooooooooooooooo",
"oooooooooooooooo................................oooooooooooooooo",
"oooooooooooooooo................................oooooooooooooooo",
"oooooooooooooooo................................oooooooooooooooo",
"oooooooooooooooo................................oooooooooooooooo",
"oooooooooooo........................................oooooooooooo",
"oooooooooooo........................................oooooooooooo",
"oooooooooooo........................................oooooooooooo",
"oooooooooooo........................................oooooooooooo",
"oooooooo..............OOOOOOOO....OOOOOOOO..............oooooooo",
"oooooooo..............OOOOOOOO....OOOOOOOO..............oooooooo",
"oooooooo..............OOOOOOOO....OOOOOOOO..............oooooooo",
"oooooooo..............OOOOOOOO....OOOOOOOO..............oooooooo",
"oooooooo..........OOOO++++++++OOOO++++++++OOOO..........oooooooo",
"oooooooo..........OOOO++++++++OOOO++++++++OOOO..........oooooooo",
"oooooooo..........OOOO++++++++OOOO++++++++OOOO..........oooooooo",
"oooooooo..........OOOO++++++++OOOO++++++++OOOO..........oooooooo",
"oooooooo..........++++++++++++++++++++++++++++..........oooooooo",
"oooooooo..........++++++++++++++++++++++++++++..........oooooooo",
"oooooooo..........++++++++++++++++++++++++++++..........oooooooo",
"oooooooo..........++++++++++++++++++++++++++++..........oooooooo",
"oooooooo..........++++++++++++++++++++++++++++..........oooooooo",
"oooooooo..........++++++++++++++++++++++++++++..........oooooooo",
"oooooooo..........++++++++++++++++++++++++++++..........oooooooo",
"oooooooo..........++++++++++++++++++++++++++++..........oooooooo",
"XXXXXXXX..............++++++++++++++++++++..............oooooooo",
"XXXXXXXX..............++++++++++++++++++++..............oooooooo",
"XXXXXXXX..............++++++++++++++++++++..............oooooooo",
"XXXXXXXX..............++++++++++++++++++++..............oooooooo",
"XXXXXXXX..................++++++++++++..................oooooooo",
"XXXXXXXX..................++++++++++++..................oooooooo",
"XXXXXXXX..................++++++++++++..................oooooooo",
"XXXXXXXX..................++++++++++++..................oooooooo",
"XXXXXXXX    ..................++++..................    oooooooo",
"XXXXXXXX    ..................++++..................    oooooooo",
"XXXXXXXX    ..................++++..................    oooooooo",
"XXXXXXXX    ..................++++..................    oooooooo",
"XXXXXXXX        ................................        oooooooo",
"XXXXXXXX        ................................        oooooooo",
"XXXXXXXX        ................................        oooooooo",
"XXXXXXXX        ................................        oooooooo",
"XXXXXXXX                                                oooooooo",
"XXXXXXXX                                                oooooooo",
"XXXXXXXX                                                oooooooo",
"XXXXXXXX                                                oooooooo",
"XXXXXXXXXXXX                                        oooooooooooo",
"XXXXXXXXXXXX                                        oooooooooooo",
"XXXXXXXXXXXX                                        oooooooooooo",
"XXXXXXXXXXXX                                        oooooooooooo",
"XXXXXXXXXXXXXXXX                                XXXXoooooooooooo",
"XXXXXXXXXXXXXXXX                                XXXXoooooooooooo",
"XXXXXXXXXXXXXXXX                                XXXXoooooooooooo",
"XXXXXXXXXXXXXXXX                                XXXXoooooooooooo",
"XXXXXXXXXXXXXXXXXXXXXXXXXXXXXXXXXXXXXXXXXXXXXXXXXXXXoooooooooooo",
"XXXXXXXXXXXXXXXXXXXXXXXXXXXXXXXXXXXXXXXXXXXXXXXXXXXXoooooooooooo",
"XXXXXXXXXXXXXXXXXXXXXXXXXXXXXXXXXXXXXXXXXXXXXXXXXXXXoooooooooooo",
"XXXXXXXXXXXXXXXXXXXXXXXXXXXXXXXXXXXXXXXXXXXXXXXXXXXXoooooooooooo",
"XXXXXXXXXXXXXXXXXXXXXXXXXXXXXXXXXXXXXXXXXXXXXXXXXXXXoooooooooooo",
"XXXXXXXXXXXXXXXXXXXXXXXXXXXXXXXXXXXXXXXXXXXXXXXXXXXXoooooooooooo",
"XXXXXXXXXXXXXXXXXXXXXXXXXXXXXXXXXXXXXXXXXXXXXXXXXXXXoooooooooooo",
"XXXXXXXXXXXXXXXXXXXXXXXXXXXXXXXXXXXXXXXXXXXXXXXXXXXXoooooooooooo"
};
