/* XPM */
static char *e27ffc756e094a39c324d035bcb4aad5kAuukt2NPE8yaIhe[] = {
/* columns rows colors chars-per-pixel */
"64 64 16 1 ",
"  c #E3AC3D",
". c black",
"X c #B97A57",
"o c white",
"O c #EBE8EB",
"+ c #C27E5B",
"@ c #BD7653",
"# c gray88",
"$ c #E09FB6",
"% c #AD7253",
"& c #D4D2D4",
"* c #E187A8",
"= c #EB9DBA",
"- c #80133B",
"; c #DE916A",
": c #CA9436",
/* pixels */
"                    ........            ........                ",
"                    ........            ........                ",
"                    ........            ........                ",
"                    ........            ........                ",
"            ........XXXX................XXXX........            ",
"            ........XXXX................XXXX........            ",
"            ........XXXX................XXXX........            ",
"            ........XXXX................XXXX........            ",
"    ............ooooOOOOOOOO++++@@@@@@@@OOOO####oooo........    ",
"    ............ooooOOOOOOOO++++@@@@@@@@OOOO####oooo........    ",
"    ............ooooOOOOOOOO++++@@@@@@@@OOOO####oooo........    ",
"    ............ooooOOOOOOOO++++@@@@@@@@OOOO####oooo........    ",
"....oooo....++++ooooOOOOOOOO++++@@@@OOOOOOOO$$$$$$$$oooooooo....",
"....oooo....++++ooooOOOOOOOO++++@@@@OOOOOOOO$$$$$$$$oooooooo....",
"....oooo....++++ooooOOOOOOOO++++@@@@OOOOOOOO$$$$$$$$oooooooo....",
"....oooo....++++ooooOOOOOOOO++++@@@@OOOOOOOO$$$$$$$$oooooooo....",
"....OOOO....++++%%%%OOOOOOOOOOOOOOOOOOOOOOOO....&&&&####&&&&....",
"....OOOO....++++%%%%OOOOOOOOOOOOOOOOOOOOOOOO....&&&&####&&&&....",
"....OOOO....++++%%%%OOOOOOOOOOOOOOOOOOOOOOOO....&&&&####&&&&....",
"....OOOO....++++%%%%OOOOOOOOOOOOOOOOOOOOOOOO....&&&&####&&&&....",
"............ooooOOOOOOOOOOOO........OOOOOOOOOOOO................",
"............ooooOOOOOOOOOOOO........OOOOOOOOOOOO................",
"............ooooOOOOOOOOOOOO........OOOOOOOOOOOO................",
"............ooooOOOOOOOOOOOO........OOOOOOOOOOOO................",
"    ....oooo....OOOO####....oooooooo....OOOOOOOO&&&&....        ",
"    ....oooo....OOOO####....oooooooo....OOOOOOOO&&&&....        ",
"    ....oooo....OOOO####....oooooooo....OOOOOOOO&&&&....        ",
"    ....oooo....OOOO####....oooooooo....OOOOOOOO&&&&....        ",
"    ....oooo....oooooooo....oooooooo....OOOOOOOO&&&&....        ",
"    ....oooo....oooooooo....oooooooo....OOOOOOOO&&&&....        ",
"    ....oooo....oooooooo....oooooooo....OOOOOOOO&&&&....        ",
"    ....oooo....oooooooo....oooooooo....OOOOOOOO&&&&....        ",
"    ........****============........&&&&OOOO@@@@%%%%....        ",
"    ........****============........&&&&OOOO@@@@%%%%....        ",
"    ........****============........&&&&OOOO@@@@%%%%....        ",
"    ........****============........&&&&OOOO@@@@%%%%....        ",
"        ....----****----====&&&&&&&&OOOO@@@@@@@@%%%%....        ",
"        ....----****----====&&&&&&&&OOOO@@@@@@@@%%%%....        ",
"        ....----****----====&&&&&&&&OOOO@@@@@@@@%%%%....        ",
"        ....----****----====&&&&&&&&OOOO@@@@@@@@%%%%....        ",
"            ........................................            ",
"            ........................................            ",
"            ........................................            ",
"            ........................................            ",
"                ....&&&&&&&&%%%%%%%%%%%%&&&&....                ",
"                ....&&&&&&&&%%%%%%%%%%%%&&&&....                ",
"                ....&&&&&&&&%%%%%%%%%%%%&&&&....                ",
"                ....&&&&&&&&%%%%%%%%%%%%&&&&....                ",
"                ....;;;;OOOOOOOO@@@@@@@@@@@@....::::            ",
"                ....;;;;OOOOOOOO@@@@@@@@@@@@....::::            ",
"                ....;;;;OOOOOOOO@@@@@@@@@@@@....::::            ",
"                ....;;;;OOOOOOOO@@@@@@@@@@@@....::::            ",
"            ::::................................::::::::        ",
"            ::::................................::::::::        ",
"            ::::................................::::::::        ",
"            ::::................................::::::::        ",
"            ::::::::::::::::::::::::::::::::::::::::::::        ",
"            ::::::::::::::::::::::::::::::::::::::::::::        ",
"            ::::::::::::::::::::::::::::::::::::::::::::        ",
"            ::::::::::::::::::::::::::::::::::::::::::::        ",
"                ::::::::::::::::::::::::::::::::::::            ",
"                ::::::::::::::::::::::::::::::::::::            ",
"                ::::::::::::::::::::::::::::::::::::            ",
"                ::::::::::::::::::::::::::::::::::::            "
};
