/* XPM */
static char *_13492cffc67429aa8d4eff2e8521f118xzb0kBBMsEvfFh6[] = {
/* columns rows colors chars-per-pixel */
"64 64 31 1 ",
"  c black",
". c #68463C",
"X c #7A4935",
"o c #335766",
"O c #785549",
"+ c #9E0C11",
"@ c #B71C1C",
"# c #B31924",
"$ c #8A553E",
"% c #9B6144",
"& c #9A6147",
"* c #B87F53",
"= c #BB7659",
"- c #C38F2A",
"; c #C28E35",
": c #E3AE33",
"> c #C98853",
", c #C88857",
"< c #DA9659",
"1 c #D9935E",
"2 c #D9965E",
"3 c #E2AD41",
"4 c #E1AC4B",
"5 c #EBA063",
"6 c #256D8A",
"7 c #3B7894",
"8 c #7B929C",
"9 c #7E949E",
"0 c #95B1BD",
"q c #9FC2D1",
"w c white",
/* pixels */
"::::::::333333333333333333334444333333333333333333333333::::::::",
"::::::::333333333333333333334444333333333333333333333333::::::::",
"::::::::333333333333333333334444333333333333333333333333::::::::",
"::::::::333333333333333333334444333333333333333333333333::::::::",
"::::3333333333333333333333333333                    ::::::::::::",
"::::3333333333333333333333333333                    ::::::::::::",
"::::3333333333333333333333333333                    ::::::::::::",
"::::3333333333333333333333333333                    ::::::::::::",
"333333333333                    ================    3333::::::::",
"333333333333                    ================    3333::::::::",
"333333333333                    ================    3333::::::::",
"333333333333                    ================    3333::::::::",
"333333333333    ............====================    333333333333",
"333333333333    ............====================    333333333333",
"333333333333    ............====================    333333333333",
"333333333333    ............====================    333333333333",
"                ............OOOOOOOOOOOOOOOOOOOO            3333",
"                ............OOOOOOOOOOOOOOOOOOOO            3333",
"                ............OOOOOOOOOOOOOOOOOOOO            3333",
"                ............OOOOOOOOOOOOOOOOOOOO            3333",
"    &&&&&&&&&&&&&&&&&&&&&&&&&&&&&&&&&&&&&&&&============    3333",
"    &&&&&&&&&&&&&&&&&&&&&&&&&&&&&&&&&&&&&&&&============    3333",
"    &&&&&&&&&&&&&&&&&&&&&&&&&&&&&&&&&&&&&&&&============    3333",
"    &&&&&&&&&&&&&&&&&&&&&&&&&&&&&&&&&&&&&&&&============    3333",
"3333        >>>><<<<<<<<****        ****2222<<<<****    3333::::",
"3333        >>>><<<<<<<<****        ****2222<<<<****    3333::::",
"3333        >>>><<<<<<<<****        ****2222<<<<****    3333::::",
"3333        >>>><<<<<<<<****        ****2222<<<<****    3333::::",
"::::3333    >>>><<<<2222    wwwwwwww    11115555    wwww    ::::",
"::::3333    >>>><<<<2222    wwwwwwww    11115555    wwww    ::::",
"::::3333    >>>><<<<2222    wwwwwwww    11115555    wwww    ::::",
"::::3333    >>>><<<<2222    wwwwwwww    11115555    wwww    ::::",
"::::3333    ++++8888++++++++++++############@@@@++++    3333::::",
"::::3333    ++++8888++++++++++++############@@@@++++    3333::::",
"::::3333    ++++8888++++++++++++############@@@@++++    3333::::",
"::::3333    ++++8888++++++++++++############@@@@++++    3333::::",
"::::3333    XXXX8888$$$$XXXX$$$$++++########@@@@    3333::::::::",
"::::3333    XXXX8888$$$$XXXX$$$$++++########@@@@    3333::::::::",
"::::3333    XXXX8888$$$$XXXX$$$$++++########@@@@    3333::::::::",
"::::3333    XXXX8888$$$$XXXX$$$$++++########@@@@    3333::::::::",
"::::3333    XXXX0899XXXXXXXX&&&&2222++++++++####    ::::::::::::",
"::::3333    XXXX8899XXXXXXXX&&&&2222++++++++####    ::::::::::::",
"::::3333    XXXX80O9XXXXXXXX&&&&2222++++++++####    ::::::::::::",
"::::3333    XXXX8899XXXXXXXX&&&&2222++++++++####    ::::::::::::",
"::::3333qqqq9999000099889999%%%%2222,,,,$$$$++++    33333333::::",
"::::3333qqqq9999000099889999%%%%2222,,,,$$$$++++    33333333::::",
"::::3333qqqq9999000088889999%%%%2222,,,,$$$$++++    33333333::::",
"::::3333qqqq9999000088889999%%&&2222,,,,$$$$++++    33333333::::",
"::::::::0000    0000oooo0000oooo666666667777        3333::::::::",
"::::::::0000    0000oooo0000oooo666666667777        3333::::::::",
"::::::::0000    0000oooo0000oooo666666667777        3333::::::::",
"::::::::0000    0000oooo0000oooo666666667777        3333::::::::",
"::::;;;;qqqq    0000    9999                    ;;;;;;;;3333::::",
"::::;;;;qqqq    0000    9999                    ;;;;;;;;3333::::",
"::::;;;;qqqq    0000    9999                    ;;;;;;;;3333::::",
"::::;;;;qqqq    0000    9999                    ;;;;;;;;3333::::",
"::::;;;;0000----9999----9999------------------------;;;;::::::::",
"::::;;;;0000----9999----9999------------------------;;;;::::::::",
"::::;;;;0000----9999----9999------------------------;;;;::::::::",
"::::;;;;0000----9999----9999------------------------;;;;::::::::",
"::::::::;;;;;;;;;;;;------------------------;;;;;;;;::::::::::::",
"::::::::;;;;;;;;;;;;------------------------;;;;;;;;::::::::::::",
"::::::::;;;;;;;;;;;;------------------------;;;;;;;;::::::::::::",
"::::::::;;;;;;;;;;;;------------------------;;;;;;;;::::::::::::"
};
