/* XPM */
static char *_5212b7bd1754fc9de431377d7b2fc31xod20o7HJKy5qwYd[] = {
/* columns rows colors chars-per-pixel */
"64 64 27 1 ",
"  c #E4B03E",
". c #81969F",
"X c #7C452E",
"o c #A00002",
"O c #9C6143",
"+ c #BE7855",
"@ c #C4902E",
"# c #E5B12C",
"$ c #C59120",
"% c black",
"& c white",
"* c #E09A59",
"= c #DB975E",
"- c #97B5C1",
"; c #BA8151",
": c #7A5345",
"> c #B50A19",
", c #693620",
"< c #93A6B0",
"1 c #2B5566",
"2 c #CA8A57",
"3 c #684236",
"4 c #23718F",
"5 c #CB8A51",
"6 c #9D6140",
"7 c #8096A0",
"8 c #391C18",
/* pixels */
"############%%%%%%%%%%%%%%%%%%%%                        ########",
"############%%%%%%%%%%%%%%%%%%%%  *                     ########",
"############%%%%%%%%%%%%%%%%%%%%                        ########",
"############%%%%%%%%%%%%%%%%%%%%                        ########",
"############%%%%++++++++++++++++%%%%%%%%%%%%%%%%%%%%        ####",
"############%%%%++++++++++++++++%%%%%%%%%%%%%%%%%%%%        ####",
"############%%%%++++++++++++++++%%%%%%%%%%%%%%%%%%%%        ####",
"############%%%%++++++++++++++++%%%%%%%%%%%%%%%%%%%%        ####",
"########    %%%%++++++++++++++++++++OOOOOOOOOOOO%%%%            ",
"########    %%%%++++++++++++++++++++OOOOOOOOOOOO%%%%            ",
"########    %%%%++++++++++++++++++++OOOOOOOOOOOO%%%%            ",
"########    %%%%++++++++++++++++++++OOOOOOOOOOOO%%%%            ",
"    %%%%%%%%%%%%::::::::::::::::::::333333333333%%%%%%%%%%%%%%%%",
"    %%%%%%%%%%%%::::::::::::::::::::333333333333%%%%%%%%%%%%%%%%",
"    %%%%%%%%%%%%::::::::::::::::::::333333333333%%%%%%%%%%%%%%%%",
"    %%%%%%%%%%%%::::::::::::::::::::333333333333%%%%%%%%%%%%%%%%",
"    %%%%++++++++++++OOOOOOOOOOOOOOOOOOOOOOOOOOOOOOOOOOOOOOOO%%%%",
"    %%%%++++++++++++OOOOOOOOOOOOOOOOOOOOOOOOOOOOOOOOOOOOOOOO%%%%",
"    %%%%++++++++++++OOOOOOOOOOOOOOOOOOOOOOOOOOOOOOOOOOOOOOOO%%%%",
"    %%%%++++++++++++OOOOOOOOOOOOOOOOOOOOOOOOOOOOOOOOOOOOOOOO%%%%",
"        %%%%22222222;;;;;;;;%%%%8888;;;;;;;;;;;;%%%%%%%%%%%%    ",
"        %%%%22222222;;;;;;;;%%%%8888;;;;;;;;;;;;%%%%%%%%%%%%    ",
"        %%%%22222225;;;;;;;;%%%%8888;;;;;;;;;;;;%%%%%%%%%%%%  * ",
"        %%%%22222222;;;;;;;;%%%%8888;;;;;;;;;;;;%%%%%%%%%%%%    ",
"####%%%%&&&&%%%%****====%%%%&&&&&&&&%%%%**=**=**5555%%%%####    ",
"####%%%%&&&&%%%%=*=*====%%%%&&&&&&&&%%%%=**=**=*5555%%%%####    ",
"####%%%%&&&&%%%%*=*=====%%%%&&&&&&&&%%%%*=**5**=5555%%%%####    ",
"####%%%%&&&&%%%%****====%%%%&&&&&&&&%%%%**=*****5555%%%%####    ",
"####%%%%&&&&%%%%****====%%%%&&&&&&&&%%%%====*=*=5555%%%%    ####",
"####%%%%&&&&%%%%****====%%%%&&&&&&&&%%%%====*=**5555%%%%    ####",
"####%%%%&&&&%%%%*****===%%%%&&&&&&&&%%%%====**=*5555%%%%    ####",
"####%%%%&&&&%%%%****====%%%%&&&&&&&&%%%%=====***5555%%%%    ####",
"####....7777-------->>>>>>>>>>>>oooooooooooooooooooo%%%%    ####",
"####....7777-------->>>>>>>>>>>>oooooooooooooooooooo%%%%    ####",
"####....7777-------->>>>>>>>>>>>oooooooooooooooooooo%%%%    ####",
"####....7777-------->>>>>>>>>>>>oooooooooooooooooooo%%%%    ####",
"########    %%%%<<<<>>>>>>>>oooo,,,,XXXXXXXX,,,,,,,,%%%%    ####",
"########    %%%%<<<<>>>>>>>>oooo,,,,XXXXXXXX,,,,,,,,%%%%    ####",
"########    %%%%<<<<>>>>>>>>oooo,,,,XXXXXXXX,,,,,,,,%%%%    ####",
"########    %%%%<<<<>>>>>>>>oooo,,,,XXXXXXXX,,,,,,,,%%%%    ####",
"####------------....<<<<....<<<<<<<<====XXXXXXXX,,,,%%%%    ####",
"####------------....<<<<....<<<<<<<<====XXXXXXXX,,,,%%%%    ####",
"####------------....<<<<....<<<<<<<<====XXXXXXXX,,,,%%%%    ####",
"####------------....<<<<....<<<<<<<<====XXXXXXXX,,,,%%%%    ####",
"####        %%%%....XXXX2222====6666XXXX%%%%%%%%%%%%%%%%    ####",
"####        %%%%....XXXX2222====6666XXXX%%%%%%%%%%%%%%%%    ####",
"####        %%%%....XXXX2222====6666XXXX%%%%%%%%%%%%%%%%    ####",
"####        %%%%....XXXX2222====6666XXXX%%%%%%%%%%%%%%%%    ####",
"####................4444444444441111111111111111%%%%@@@@########",
"####................4444444444441111111111111111%%%%@@@@########",
"####................4444444444441111111111111111%%%%@@@@########",
"####................4444444444441111111111111111%%%%@@@@########",
"####    @@@@%%%%%%%%%%%%%%%%%%%%%%%%%%%%%%%%%%%%%%%%@@@@@@@@####",
"####    @@@@%%%%%%%%%%%%%%%%%%%%%%%%%%%%%%%%%%%%%%%%@@@@@@@@####",
"####    @@@@%%%%%%%%%%%%%%%%%%%%%%%%%%%%%%%%%%%%%%%%@@@@@@@@####",
"####    @@@@%%%%%%%%%%%%%%%%%%%%%%%%%%%%%%%%%%%%%%%%@@@@@@@@####",
"########@@@@$$$$$$$$$$$$$$$$$$$$$$$$$$$$$$$$$$$$$$$$@@@@@@@@####",
"########@@@@$$$$$$$$$$$$$$$$$$$$$$$$$$$$$$$$$$$$$$$$@@@@@@@@####",
"########@@@@$$$$$$$$$$$$$$$$$$$$$$$$$$$$$$$$$$$$$$$$@@@@@@@@####",
"########@@@@$$$$$$$$$$$$$$$$$$$$$$$$$$$$$$$$$$$$$$$$@@@@@@@@####",
"############@@@@@@@@$$$$$$$$$$$$$$$$$$$$$$$$@@@@@@@@@@@@########",
"############@@@@@@@@$$$$$$$$$$$$$$$$$$$$$$$$@@@@@@@@@@@@########",
"############@@@@@@@@$$$$$$$$$$$$$$$$$$$$$$$$@@@@@@@@@@@@########",
"############@@@@@@@@$$$$$$$$$$$$$$$$$$$$$$$$@@@@@@@@@@@@########"
};
