/* XPM */
static char *_09546738e794866906e2786218942d3DptMzgVRcfGHtaN4[] = {
/* columns rows colors chars-per-pixel */
"64 64 30 1 ",
"  c black",
". c #68463C",
"X c #7A4935",
"o c #335766",
"O c #785549",
"+ c #9E0C11",
"@ c #B71C1C",
"# c #B31924",
"$ c #8A553E",
"% c #9B6144",
"& c #9A6147",
"* c #BC7656",
"= c #B87F53",
"- c #BB7659",
"; c #C38F2A",
": c #C28E35",
"> c #E3AE33",
", c #C98853",
"< c #C88857",
"1 c #DA9659",
"2 c #D9965E",
"3 c #E2AD41",
"4 c #E1AC4B",
"5 c #256D8A",
"6 c #3B7894",
"7 c #7B929C",
"8 c #7E949E",
"9 c #95B1BD",
"0 c #9FC2D1",
"q c white",
/* pixels */
">>>>>>>>333333333333333333334444                    >>>>>>>>>>>>",
">>>>>>>>333333333333333333334444                    >>>>>>>>>>>>",
">>>>>>>>333333333333333333334444                    >>>>>>>>>>>>",
">>>>>>>>333333333333333333334444                    >>>>>>>>>>>>",
">>>>33333333                    ****************    >>>>>>>>>>>>",
">>>>33333333                    ****************    >>>>>>>>>>>>",
">>>>33333333                    ****************    >>>>>>>>>>>>",
">>>>33333333                    ****************    >>>>>>>>>>>>",
"333333338888    8888&&&&9999********************    3333>>>>>>>>",
"333333338888    8888&&&&9999********************    3333>>>>>>>>",
"333333338888    8888&&&&9999********************    3333>>>>>>>>",
"333333338888    8888&&&&9999********************    3333>>>>>>>>",
"        8888    9999....0000OOOOOOOOOOOOOOOOOOOO            3333",
"        8888    9999....0000OOOOOOOOOOOOOOOOOOOO            3333",
"        8888    9999....0000OOOOOOOOOOOOOOOOOOOO            3333",
"        8888    9999....0000OOOOOOOOOOOOOOOOOOOO            3333",
"    &&&&9999&&&&9999&&&&9999&&&&&&&&&&&&&&&&------------    3333",
"    &&&&9999&&&&9999&&&&9999&&&&&&&&&&&&&&&&------------    3333",
"    &&&&9999&&&&9999&&&&9999&&&&&&&&&&&&&&&&------------    3333",
"    &&&&9999&&&&9999&&&&9999&&&&&&&&&&&&&&&&------------    3333",
"4444    88887777999988880000qqqqqqqq    ====<<<<    qqqq    3333",
"4444    88887777999988880000qqqqqqqq    ====<<<<    qqqq    3333",
"4444    88887777999988880000qqqqqqqq    ====<<<<    qqqq    3333",
"4444    88887777999988880000qqqqqqqq    ====<<<<    qqqq    3333",
"3333>>>>    ,,,,87771111    qqqqqqqq    22221111    qqqq    >>>>",
"3333>>>>    ,,,,97771111    qqqqqqqq    22221111    qqqq    >>>>",
"3333>>>>    ,,,,889O1122    qqqqqqqq    22221111    qqqq    >>>>",
"3333>>>>    ,,,,88881112    qqqqqqqq    22221111    qqqq    >>>>",
">>>>>>>>    ++++8877++++++++####################++++    3333>>>>",
">>>>>>>>    ++++7877++++++++####################++++    3333>>>>",
">>>>>>>>    ++++7777++++++++####################++++    3333>>>>",
">>>>>>>>    ++++7777++++++++####################++++    3333>>>>",
">>>>>>>>    ++++8877++++++++++++############@@@@++++    3333>>>>",
">>>>>>>>    ++++8O97++++++++++++############@@@@++++    3333>>>>",
">>>>>>>>    ++++8877++++++++++++############@@@@++++    3333>>>>",
">>>>>>>>    ++++8879++++++++++++############@@@@++++    3333>>>>",
">>>>>>>>    XXXXXXXX    XXXX$$$$++++########@@@@    3333>>>>>>>>",
">>>>>>>>    XXXXXXXX    XXXX$$$$++++########@@@@    3333>>>>>>>>",
">>>>>>>>    XXXXXXXX    XXXX$$$$++++########@@@@    3333>>>>>>>>",
">>>>>>>>    XXXXXXXX    XXXX$$$$++++########@@@@    3333>>>>>>>>",
">>>>>>>>    XXXXXXXX    XXXX&&&&2222++++++++####    >>>>>>>>>>>>",
">>>>>>>>    XXXXXXXX    XXXX&&&&2222++++++++####    >>>>>>>>>>>>",
">>>>>>>>    XXXXXXXX    XXXX&&&&2222++++++++####    >>>>>>>>>>>>",
">>>>>>>>    XXXXXXXX    XXXX&&&&2222++++++++####    >>>>>>>>>>>>",
">>>>>>>>        XXXXXXXXXXXX%%%%2222<<<<$$$$++++    33333333>>>>",
">>>>>>>>        XXXXXXXXXXXX%%%%2222<<<<$$$$++++    33333333>>>>",
">>>>>>>>        XXXXXXXXXXXX%%%%2222<<<<$$$$++++    33333333>>>>",
">>>>>>>>        XXXXXXXXXXXX%%&&2222<<<<$$$$++++    33333333>>>>",
">>>>>>>>::::    oooooooooooooooo555555556666        3333>>>>>>>>",
">>>>>>>>::::    oooooooooooooooo555555556666        3333>>>>>>>>",
">>>>>>>>::::    oooooooooooooooo555555556666        3333>>>>>>>>",
">>>>>>>>::::    oooooooooooooooo555555556666        3333>>>>>>>>",
">>>>::::::::                                    ::::::::3333>>>>",
">>>>::::::::                                    ::::::::3333>>>>",
">>>>::::::::                                    ::::::::3333>>>>",
">>>>::::::::                                    ::::::::3333>>>>",
">>>>:::::::::;;;;;;;;;;;;;;;;;;;;;;;;;;;;;;;;;;;;;;;::::>>>>>>>>",
">>>>::::::::;;;;;;;;;;;;;;;;;;;;;;;;;;;;;;;;;;;;;;;;::::>>>>>>>>",
">>>>::::::::;;;;;;;;;;;;;;;;;;;;;;;;;;;;;;;;;;;;;;;;::::>>>>>>>>",
">>>>::::::::;;;;;;;;;;;;;;;;;;;;;;;;;;;;;;;;;;;;;;;;::::>>>>>>>>",
">>>>>>>>::::::::::::;;;;;;;;;;;;;;;;;;;;;;;;::::::::>>>>>>>>>>>>",
">>>>>>>>::::::::::::;;;;;;;;;;;;;;;;;;;;;;;;::::::::>>>>>>>>>>>>",
">>>>>>>>::::::::::::;;;;;;;;;;;;;;;;;;;;;;;;::::::::>>>>>>>>>>>>",
">>>>>>>>::::::::::::;;;;;;;;;;;;;;;;;;;;;;;;::::::::>>>>>>>>>>>>"
};
