/* XPM */
static char *result[] = {
/* columns rows colors chars-per-pixel */
"64 64 37 1 ",
"  c black",
". c #3E2723",
"X c #68463C",
"o c #7A4935",
"O c #335766",
"+ c #785549",
"@ c #9E0C11",
"# c #B71C1C",
"$ c #B31924",
"% c #8A553E",
"& c #9B6144",
"* c #9A6147",
"= c #BC7656",
"- c #B87F53",
"; c #BB7659",
": c #C38F2A",
"> c #C28E35",
", c #E3AE33",
"< c #C98853",
"1 c #C88857",
"2 c #C7885B",
"3 c #DA9659",
"4 c #D9935E",
"5 c #D9965E",
"6 c #E2AD41",
"7 c #E1AC4B",
"8 c #EBA063",
"9 c #256D8A",
"0 c #3B7894",
"q c #7F949D",
"w c #7E949E",
"e c #91A4AD",
"r c #90A4AE",
"t c #95B1BD",
"y c #94B4C2",
"u c #9FC2D1",
"i c white",
/* pixels */
",,,,,,,,666666666666666666667777                    ,,,,,,,,,,,,",
",,,,,,,,666666666666666666667777                    ,,,,,,,,,,,,",
",,,,,,,,666666666666666666667777                    ,,,,,,,,,,,,",
",,,,,,,,666666666666666666667777                    ,,,,,,,,,,,,",
",,,,66666666                    ================    ,,,,,,,,,,,,",
",,,,66666666                    ================    ,,,,,,,,,,,,",
",,,,66666666                    ================    ,,,,,,,,,,,,",
",,,,66666666                    ================    ,,,,,,,,,,,,",
"666666666666    ************====================    6666,,,,,,,,",
"666666666666    ************====================    6666,,,,,,,,",
"666666666666    ************====================    6666,,,,,,,,",
"666666666666    ************====================    6666,,,,,,,,",
"                XXXXXXXXXXXX++++++++++++++++++++            6666",
"                XXXXXXXXXXXX++++++++++++++++++++            6666",
"                XXXXXXXXXXXX++++++++++++++++++++            6666",
"                XXXXXXXXXXXX++++++++++++++++++++            6666",
"    ****************************************;;;;;;;;;;;;    6666",
"    ****************************************;;;;;;;;;;;;    6666",
"    ****************************************;;;;;;;;;;;;    6666",
"    ****************************************;;;;;;;;;;;;    6666",
"7777            ------------....    --------11112222    66666666",
"7777            ------------....    --------11112222    66666666",
"7777            ------------....    --------11112222    66666666",
"7777            ------------....    --------11112222    66666666",
"6666,,,,    <<<<33333333    iiiiiiii    55553333    iiii    ,,,,",
"6666,,,,    <<<<33333333    iiiiiiii    55553333    iiii    ,,,,",
"6666,,,,    <<<<33333333    iiiiiiii    55553333    iiii    ,,,,",
"6666,,,,    <<<<33333333    iiiiiiii    55553333    iiii    ,,,,",
",,,,    wwww<<<<uuuu5555uuuuiiiiiiii    44448888    iiii    ,,,,",
",,,,    wwww<<<<uuuu5555uuuuiiiiiiii    44448888    iiii    ,,,,",
",,,,    wwww<<<<uuuu5555uuuuiiiiiiii    44448888    iiii    ,,,,",
",,,,    wwww<<<<uuuu5555uuuuiiiiiiii    44448888    iiii    ,,,,",
",,,,    wwww@@@@yyyy@@@@uuuu@@@@$$$$$$$$$$$$####@@@@    6666,,,,",
",,,,    wwww@@@@yyyy@@@@uuuu@@@@$$$$$$$$$$$$####@@@@    6666,,,,",
",,,,    wwww@@@@yyyy@@@@uuuu@@@@$$$$$$$$$$$$####@@@@    6666,,,,",
",,,,    wwww@@@@yyyy@@@@uuuu@@@@$$$$$$$$$$$$####@@@@    6666,,,,",
",,,,    eeeeooooyyyy%%%%tttt%%%%@@@@$$$$$$$$####    6666,,,,,,,,",
",,,,    eeeeooooyyyy%%%%tttt%%%%@@@@$$$$$$$$####    6666,,,,,,,,",
",,,,    eeeeooooyyyy%%%%tttt%%%%@@@@$$$$$$$$####    6666,,,,,,,,",
",,,,    eeeeooooyyyy%%%%tttt%%%%@@@@$$$$$$$$####    6666,,,,,,,,",
",,,,    qqqqqqqqrrrrqqqqqqqq****5555@@@@@@@@$$$$    ,,,,,,,,,,,,",
",,,,    qqqqqqqqrrrrqqqqqqqq****5555@@@@@@@@$$$$    ,,,,,,,,,,,,",
",,,,    qqqqqqqqrrrrqqqqqqqq****5555@@@@@@@@$$$$    ,,,,,,,,,,,,",
",,,,    qqqqqqqqrrrrqqqqqqqq****5555@@@@@@@@$$$$    ,,,,,,,,,,,,",
",,,,            rrrroooooooo&&&&55551111%%%%@@@@    66666666,,,,",
",,,,            rrrroooooooo&&&&55551111%%%%@@@@    66666666,,,,",
",,,,            rrrroooooooo&&&&55551111%%%%@@@@    66666666,,,,",
",,,,            rrrroooooooo&&&&55551111%%%%@@@@    66666666,,,,",
",,,,,,,,>>>>    rrrrOOOOOOOOOOOO999999990000        6666,,,,,,,,",
",,,,,,,,>>>>    rrrrOOOOOOOOOOOO999999990000        6666,,,,,,,,",
",,,,,,,,>>>>    rrrrOOOOOOOOOOOO999999990000        6666,,,,,,,,",
",,,,,,,,>>>>    rrrrOOOOOOOOOOOO999999990000        6666,,,,,,,,",
",,,,>>>>>>>>                                    >>>>>>>>6666,,,,",
",,,,>>>>>>>>                                    >>>>>>>>6666,,,,",
",,,,>>>>>>>>                                    >>>>>>>>6666,,,,",
",,,,>>>>>>>>                                    >>>>>>>>6666,,,,",
",,,,>>>>>>>>::::::::::::::::::::::::::::::::::::::::>>>>,,,,,,,,",
",,,,>>>>>>>>::::::::::::::::::::::::::::::::::::::::>>>>,,,,,,,,",
",,,,>>>>>>>>::::::::::::::::::::::::::::::::::::::::>>>>,,,,,,,,",
",,,,>>>>>>>>::::::::::::::::::::::::::::::::::::::::>>>>,,,,,,,,",
",,,,,,,,>>>>>>>>>>>>::::::::::::::::::::::::>>>>>>>>,,,,,,,,,,,,",
",,,,,,,,>>>>>>>>>>>>::::::::::::::::::::::::>>>>>>>>,,,,,,,,,,,,",
",,,,,,,,>>>>>>>>>>>>::::::::::::::::::::::::>>>>>>>>,,,,,,,,,,,,",
",,,,,,,,>>>>>>>>>>>>::::::::::::::::::::::::>>>>>>>>,,,,,,,,,,,,"
};
