/* XPM */
static char *_446831a53184adee37f30d85843a80esqErISvhRSrSjijh[] = {
/* columns rows colors chars-per-pixel */
"64 64 34 1 ",
"  c black",
". c #3E2723",
"X c #693C2A",
"o c #68463C",
"O c #7A4935",
"+ c #335766",
"@ c #785549",
"# c #9E0C11",
"$ c #B31924",
"% c #9B6144",
"& c #9A6147",
"* c #BC7656",
"= c #B87F53",
"- c #BB7659",
"; c #C38F2A",
": c #C28E35",
"> c #E3AE33",
", c #C98853",
"< c #C88857",
"1 c #C7885B",
"2 c #DA9659",
"3 c #D9935E",
"4 c #D9965E",
"5 c #E2AD41",
"6 c #E1AC4B",
"7 c #EBA063",
"8 c #256D8A",
"9 c #3B7894",
"0 c #7F949D",
"q c #7E949E",
"w c #91A4AD",
"e c #95B1BD",
"r c #94B4C2",
"t c white",
/* pixels */
">>>>>>>>555555555555555555556666                    >>>>>>>>>>>>",
">>>>>>>>555555555555555555556666                    >>>>>>>>>>>>",
">>>>>>>>555555555555555555556666                    >>>>>>>>>>>>",
">>>>>>>>555555555555555555556666                    >>>>>>>>>>>>",
">>>>55555555                    ****************    >>>>>>>>>>>>",
">>>>55555555                    ****************    >>>>>>>>>>>>",
">>>>55555555                    ****************    >>>>>>>>>>>>",
">>>>55555555                    ****************    >>>>>>>>>>>>",
"555555555555    &&&&&&&&&&&&********************    5555>>>>>>>>",
"555555555555    &&&&&&&&&&&&********************    5555>>>>>>>>",
"555555555555    &&&&&&&&&&&&********************    5555>>>>>>>>",
"555555555555    &&&&&&&&&&&&********************    5555>>>>>>>>",
"                oooooooooooo@@@@@@@@@@@@@@@@@@@@            5555",
"                oooooooooooo@@@@@@@@@@@@@@@@@@@@            5555",
"                oooooooooooo@@@@@@@@@@@@@@@@@@@@            5555",
"                oooooooooooo@@@@@@@@@@@@@@@@@@@@            5555",
"    &&&&&&&&&&&&&&&&&&&&&&&&&&&&&&&&&&&&&&&&------------    5555",
"    &&&&&&&&&&&&&&&&&&&&&&&&&&&&&&&&&&&&&&&&------------    5555",
"    &&&&&&&&&&&&&&&&&&&&&&&&&&&&&&&&&&&&&&&&------------    5555",
"    &&&&&&&&&&&&&&&&&&&&&&&&&&&&&&&&&&&&&&&&------------    5555",
"6666            ============....    ========<<<<1111    55555555",
"6666            ============....    ========<<<<1111    55555555",
"6666            ============....    ========<<<<1111    55555555",
"6666            ============....    ========<<<<1111    55555555",
"5555>>>>    ,,,,22222222    tttttttt    44442222    tttt    >>>>",
"5555>>>>    ,,,,22222222    tttttttt    44442222    tttt    >>>>",
"5555>>>>    ,,,,22222222    tttttttt    44442222    tttt    >>>>",
"5555>>>>    ,,,,22222222    tttttttt    44442222    tttt    >>>>",
">>>>5555    ,,,,22224444    tttttttt    33337777    tttt    >>>>",
">>>>5555    ,,,,22224444    tttttttt    33337777    tttt    >>>>",
">>>>5555    ,,,,22224444    tttttttt    33337777    tttt    >>>>",
">>>>5555    ,,,,22224444    tttttttt    33337777    tttt    >>>>",
">>>>5555    ####################$$$$$$$$$$$$rrrrrrrrqqqq0000>>>>",
">>>>5555    ####################$$$$$$$$$$$$rrrrrrrrqqqq0000>>>>",
">>>>5555    ####################$$$$$$$$$$$$rrrrrrrrqq000000>>>>",
">>>>5555    ####################$$$$$$$$$$$$rrrrrrrr00000000>>>>",
">>>>5555    XXXXXXXXOOOOOOOOXXXX####$$$$$$$$wwww    5555>>>>>>>>",
">>>>5555    XXXXXXXXOOOOOOOOXXXX####$$$$$$$$wwww    5555>>>>>>>>",
">>>>5555    XXXXXXXXOOOOOOOOXXXX####$$$$$$$$wwww    5555>>>>>>>>",
">>>>5555    XXXXXXXXOOOOOOOOXXXX####$$$$$$$$wwww    5555>>>>>>>>",
">>>>5555    XXXXOOOOOOOO4444wwwwwwww0000wwww0000eeeeeeeeeeee>>>>",
">>>>5555    XXXXOOOOOOOO4444wwwwwwww0000wwww0000eeeeeeeeeeee>>>>",
">>>>5555    XXXXOOOOOOOO4444wwwwwwww0000wwww0000eeeeeeeeeeee>>>>",
">>>>5555    XXXXOOOOOOOO4444wwwwwwww0000wwww0000eeeeeeeeeeee>>>>",
">>>>5555                OOOO%%%%4444<<<<OOOO0000    55555555>>>>",
">>>>5555                OOOO%%%%4444<<<<OOOO0000    55555555>>>>",
">>>>5555                OOOO%%%%4444<<<<OOOO0000    55555555>>>>",
">>>>5555                OOOO%%&&4444<<<<OOOO0000    55555555>>>>",
">>>>>>>>::::    ++++++++++++++++8888888899990000000000000000>>>>",
">>>>>>>>::::    ++++++++++++++++8888888899990000000000000000>>>>",
">>>>>>>>::::    ++++++++++++++++8888888899990000000000000000>>>>",
">>>>>>>>::::    ++++++++++++++++8888888899990000000000000000>>>>",
">>>>::::::::                                        ::::5555>>>>",
">>>>::::::::                                        ::::5555>>>>",
">>>>::::::::                                        ::::5555>>>>",
">>>>::::::::                                        ::::5555>>>>",
">>>>::::::::;;;;;;;;;;;;;;;;;;;;;;;;;;;;;;;;;;;;;;;;::::>>>>>>>>",
">>>>::::::::;;;;;;;;;;;;;;;;;;;;;;;;;;;;;;;;;;;;;;;;::::>>>>>>>>",
">>>>::::::::;;;;;;;;;;;;;;;;;;;;;;;;;;;;;;;;;;;;;;;;::::>>>>>>>>",
">>>>::::::::;;;;;;;;;;;;;;;;;;;;;;;;;;;;;;;;;;;;;;;;::::>>>>>>>>",
">>>>>>>>::::::::::::;;;;;;;;;;;;;;;;;;;;;;;;::::::::>>>>>>>>>>>>",
">>>>>>>>::::::::::::;;;;;;;;;;;;;;;;;;;;;;;;::::::::>>>>>>>>>>>>",
">>>>>>>>::::::::::::;;;;;;;;;;;;;;;;;;;;;;;;::::::::>>>>>>>>>>>>",
">>>>>>>>::::::::::::;;;;;;;;;;;;;;;;;;;;;;;;::::::::>>>>>>>>>>>>"
};
