/* XPM */
static char *_cf094b3b3384021b14040e6e1e2b999YPqAOq9JviDut0PU[] = {
/* columns rows colors chars-per-pixel */
"64 64 15 1 ",
"  c #C07B54",
". c #985734",
"X c #CC9630",
"o c #E5AF37",
"O c black",
"+ c #9E613D",
"@ c white",
"# c #B2714A",
"$ c #EA87AD",
"% c #ED9FBC",
"& c #E2A1B8",
"* c #820335",
"= c #7D8C34",
"- c #AF7451",
"; c #FFDF00",
/* pixels */
"ooooooooooooooooooooOOOOOOOOooooooooooooOOOOOOOOoooooooooooooooo",
"ooooooooooooooooooooOOOOOOOOooooooooooooOOOOOOOOoooooooooooooooo",
"ooooooooooooooooooooOOOOOOOOooooooooooooOOOOOOOOoooooooooooooooo",
"ooooooooooooooooooooOOOOOOOOooooooooooooOOOOOOOOoooooooooooooooo",
"ooooooooooooOOOOOOOO    OOOOOOOOOOOOOOOO    OOOOOOOOoooooooooooo",
"ooooooooooooOOOOOOOO    OOOOOOOOOOOOOOOO    OOOOOOOOoooooooooooo",
"ooooooooooooOOOOOOOO    OOOOOOOOOOOOOOOO    OOOOOOOOoooooooooooo",
"ooooooooooooOOOOOOOO -  OOOOOOOOOOOOOOOO -  OOOOOOOOoooooooooooo",
"ooooOOOOOOOOOOOO++++++++++++            ++++########OOOOOOOOoooo",
"ooooOOOOOOOOOOOO++++++++++++            ++++########OOOOOOOOoooo",
"ooooOOOOOOOOOOOO++++++++++++       #    ++++########OOOOOOOOoooo",
"ooooOOOOOOOOOOOO++++++++++++         #  ++++########OOOOOOOOoooo",
"OOOO++++OOOO    ++++++++++++        ++++++++&&&&&&&&++++++++OOOO",
"OOOO++++OOOO    +++++++++++#        ++++++++&&&&&&&&++++++++OOOO",
"OOOO++++OOOO    ++++++++++++        ++++++++&&&&&&&&++++++++OOOO",
"OOOO++++OOOO    ++++++++++++        ++++++++&&&&&&&&++++++++OOOO",
"OOOO++++OOOO    ----+++++++++-++++++++++++++OOOO............OOOO",
"OOOO++++OOOO    ----++++++++++++++++++++++++OOOO............OOOO",
"OOOO++++OOOO    ----++++++++++++++++++++++++OOOO............OOOO",
"OOOO++++OOOO    ----++++++++++++++++++++++++OOOO............OOOO",
"OOOOOOOOOOOO++++++++++++++++OOOOOOOO++++++++++++OOOOOOOOOOOOOOOO",
"OOOOOOOOOOOO++++++++++++++++OOOOOOOO++++++++++++OOOOOOOOOOOOOOOO",
"OOOOOOOOOOOO++++++++++++++++OOOOOOOO++++++++++++OOOOOOOOOOOOOOOO",
"OOOOOOOOOOOO++++++++++++++++OOOOOOOO++++++++++++OOOOOOOOOOOOOOOO",
"ooooOOOO@@@@OOOO++++++++OOOO@@@@@@@@OOOO++++++++....OOOOoooooooo",
"ooooOOOO@@@@OOOO++++++++OOOO@@@@@@@@OOOO++++++++....OOOOoooooooo",
"ooooOOOO@@@@OOOO++++++++OOOO@@@@@@@@OOOO++++++++....OOOOoooooooo",
"ooooOOOO@@@@OOOO++++++++OOOO@@@@@@@@OOOO++++++++....OOOOoooooooo",
"ooooOOOO@@@@OOOO########OOOO@@@@@@@@OOOO++++++++....OOOOoooooooo",
"ooooOOOO@@@@OOOO########OOOO@@@@@@@@OOOO++++++++....OOOOoooooooo",
"ooooOOOO@@@@OOOO########OOOO@@@@@@@@OOOO++++++++....OOOOoooooooo",
"ooooOOOO@@@@OOOO########OOOO@@@@@@@@OOOO++++++++....OOOOoooooooo",
"ooooOOOOOOOO$$$$%%%%%%%%%%%%OOOOOOOO$$$$$$$$    ....OOOOoooooooo",
"ooooOOOOOOOO$$$$%%%%%%%%%%%%OOOOOOOO$$$$$$$$    ....OOOOoooooooo",
"ooooOOOOOOOO$$$$&%%%%%%%%%%%OOOOOOOO$$$$$$$$    ....OOOOoooooooo",
"ooooOOOOOOOO$$$$%%%%%%%%%%%%OOOOOOOO$$$$$$$$    ....OOOOoooooooo",
"oooo@@@@OOOO****$$$$****%%%%++++++++++++      # ....OOOOoooooooo",
"oooo@@@@OOOO****$$$$****%%%%++++++++++++        ....OOOOoooooooo",
"oooo@@@@OOOO****$$$$****%%%%++++++++++++    #   ....OOOOoooooooo",
"oooo@@@@OOOO****$$$$****%%%%++++++++++++        ....OOOOoooooooo",
"@@@@;;;;@@@@OOOOOOOOOOOOOOOOOOOOOOOOOOOOOOOOOOOOOOOOoooooooooooo",
"@@@@;;;;@@@@OOOOOOOOOOOOOOOOOOOOOOOOOOOOOOOOOOOOOOOOoooooooooooo",
"@@@@;;;;@@@@OOOOOOOOOOOOOOOOOOOOOOOOOOOOOOOOOOOOOOOOoooooooooooo",
"@@@@;;;;@@@@OOOOOOOOOOOOOOOOOOOOOOOOOOOOOOOOOOOOOOOOoooooooooooo",
"====@@@@OOOO&&&&########....####............OOOOoooooooooooooooo",
"====@@@@OOOO&&&&########....####............OOOOoooooooooooooooo",
"====@@@@OOOO&&&&########....####............OOOOoooooooooooooooo",
"====@@@@OOOO&&&&########....####............OOOOoooooooooooooooo",
"oooo====OOOOOOOOOOOO........++++            OOOOXXXXoooooooooooo",
"oooo====OOOOOOOOOOOO........++++            OOOOXXXXoooooooooooo",
"oooo====OOOOOOOOOOOO........++++  #  #  #   OOOOXXXXoooooooooooo",
"oooo====OOOOOOOOOOOO........++++            OOOOXXXXoooooooooooo",
"ooooooooooooooooOOOOOOOOOOOOOOOOOOOOOOOOOOOOOOOOXXXXXXXXoooooooo",
"ooooooooooooooooOOOOOOOOOOOOOOOOOOOOOOOOOOOOOOOOXXXXXXXXoooooooo",
"ooooooooooooooooOOOOOOOOOOOOOOOOOOOOOOOOOOOOOOOOXXXXXXXXoooooooo",
"ooooooooooooooooOOOOOOOOOOOOOOOOOOOOOOOOOOOOOOOOXXXXXXXXoooooooo",
"ooooooooooooXXXXXXXXXXXXXXXXXXXXXXXXXXXXXXXXXXXXXXXXXXXXoooooooo",
"ooooooooooooXXXXXXXXXXXXXXXXXXXXXXXXXXXXXXXXXXXXXXXXXXXXoooooooo",
"ooooooooooooXXXXXXXXXXXXXXXXXXXXXXXXXXXXXXXXXXXXXXXXXXXXoooooooo",
"ooooooooooooXXXXXXXXXXXXXXXXXXXXXXXXXXXXXXXXXXXXXXXXXXXXoooooooo",
"ooooooooooooooooXXXXXXXXXXXXXXXXXXXXXXXXXXXXXXXXXXXXoooooooooooo",
"ooooooooooooooooXXXXXXXXXXXXXXXXXXXXXXXXXXXXXXXXXXXXoooooooooooo",
"ooooooooooooooooXXXXXXXXXXXXXXXXXXXXXXXXXXXXXXXXXXXXoooooooooooo",
"ooooooooooooooooXXXXXXXXXXXXXXXXXXXXXXXXXXXXXXXXXXXXoooooooooooo"
};
