/* XPM */
static char *_2b0244b0121430a9cd3d058b046a948k3R8Vj0fp2KvrFKd[] = {
/* columns rows colors chars-per-pixel */
"64 64 10 1 ",
"  c #505C12",
". c #505B19",
"X c #68781F",
"o c #67940D",
"O c #68931F",
"+ c #74A812",
"@ c #CA9436",
"# c #E3AC3D",
"$ c #FFFC36",
"% c #FFCCCC",
/* pixels */
"################################################################",
"################################################################",
"################################################################",
"################################################################",
"################################################################",
"################################################################",
"################################################################",
"################################################################",
"################################################################",
"################################################################",
"################################################################",
"################################################################",
"################################################################",
"################################################################",
"################################################################",
"################################################################",
"################OOOO############################################",
"################OOOO############################################",
"################OOOO############################################",
"################OOOO############################################",
"############....++++################++++########################",
"############....++++################++++########################",
"############....++++################++++########################",
"############....++++################++++########################",
"################++++########oooo####++++OOOO####################",
"################++++########oooo####++++OOOO####################",
"################++++########oooo####++++OOOO####################",
"################++++########oooo####++++OOOO####################",
"########OOOO####++++....++++oooo####++++########################",
"########OOOO####++++....++++oooo####++++########################",
"########OOOO####++++....++++oooo####++++########################",
"########OOOO####++++....++++oooo####++++########################",
"############....OOOO####++++....oooo....########XXXX############",
"############....OOOO####++++....oooo....########XXXX############",
"############....OOOO####++++....oooo....########XXXX############",
"############....OOOO####++++....oooo....########XXXX############",
"############++++++++%%%%++++++++OOOO....++++....################",
"############++++++++%%%%++++++++OOOO....++++....################",
"############++++++++%%%%++++++++OOOO....++++....################",
"############++++++++%%%%++++++++OOOO....++++....################",
"################%%%%$$$$%%%%XXXX####OOOO....XXXX++++############",
"################%%%%$$$$%%%%XXXX####OOOO....XXXX++++############",
"################%%%%$$$$%%%%XXXX####OOOO....XXXX++++############",
"################%%%%$$$$%%%%XXXX####OOOO....XXXX++++############",
"########++++++++OOOO%%%%    ....OOOO....++++####++++++++########",
"########++++++++OOOO%%%%    ....OOOO....++++####++++++++########",
"########++++++++OOOO%%%%    ....OOOO....++++####++++++++########",
"########++++++++OOOO%%%%    ....OOOO....++++####++++++++########",
"############XXXXXXXX    OOOOOOOO................OOOOXXXX########",
"############XXXXXXXX    OOOOOOOO................OOOOXXXX########",
"############XXXXXXXX    OOOOOOOO................OOOOXXXX########",
"############XXXXXXXX    OOOOOOOO................OOOOXXXX########",
"############@@@@@@@@                        oooo@@@@############",
"############@@@@@@@@                        oooo@@@@############",
"############@@@@@@@@                        oooo@@@@############",
"############@@@@@@@@                        oooo@@@@############",
"################@@@@@@@@@@@@@@@@@@@@@@@@@@@@@@@@################",
"################@@@@@@@@@@@@@@@@@@@@@@@@@@@@@@@@################",
"################@@@@@@@@@@@@@@@@@@@@@@@@@@@@@@@@################",
"################@@@@@@@@@@@@@@@@@@@@@@@@@@@@@@@@################",
"################################################################",
"################################################################",
"################################################################",
"################################################################"
};
