/* XPM */
static char *result[] = {
/* columns rows colors chars-per-pixel */
"64 64 10 1 ",
"  c #505C12",
". c #505B19",
"X c #68781F",
"o c #67940D",
"O c #68931F",
"+ c #74A812",
"@ c #CA9436",
"# c #E3AC3D",
"$ c #FFFC36",
"% c #FFCCCC",
/* pixels */
"################################################################",
"################################################################",
"################################################################",
"################################################################",
"################################OOOO########....################",
"################################OOOO########....################",
"################################OOOO########....################",
"################################OOOO########....################",
"############++++############++++########++++++++################",
"############++++############++++########++++++++################",
"############++++############++++########++++++++################",
"############++++############++++########++++++++################",
"########oooo++++############++++####++++++++OOOO################",
"########oooo++++############++++####++++++++OOOO################",
"########oooo++++############++++####++++++++OOOO################",
"########oooo++++############++++####++++++++OOOO################",
"############++++OOOO####++++OOOO####++++OOOO############oooo####",
"############++++OOOO####++++OOOO####++++OOOO############oooo####",
"############++++OOOO####++++OOOO####++++OOOO############oooo####",
"############++++OOOO####++++OOOO####++++OOOO############oooo####",
"############....++++####++++oooo####++++OOOO########OOOOoooo####",
"############....++++####++++oooo####++++OOOO########OOOOoooo####",
"############....++++####++++oooo####++++OOOO########OOOOoooo####",
"############....++++####++++oooo####++++OOOO########OOOOoooo####",
"####OOOO########++++####++++oooo++++++++OOOO%%%%++++OOOO########",
"####OOOO########++++####++++oooo++++++++OOOO%%%%++++OOOO########",
"####OOOO########++++####++++oooo++++++++OOOO%%%%++++OOOO########",
"####OOOO########++++####++++oooo++++++++OOOO%%%%++++OOOO########",
"####++++OOOO####++++....++++oooooooo++++%%%%$$$$%%%%OOOO########",
"####++++OOOO####++++....++++oooooooo++++%%%%$$$$%%%%OOOO########",
"####++++OOOO####++++....++++oooooooo++++%%%%$$$$%%%%OOOO########",
"####++++OOOO####++++....++++oooooooo++++%%%%$$$$%%%%OOOO########",
"########++++....OOOOOOOO++++....oooo....OOOO%%%%XXXX############",
"########++++....OOOOOOOO++++....oooo....OOOO%%%%XXXX############",
"########++++....OOOOOOOO++++....oooo....OOOO%%%%XXXX############",
"########++++....OOOOOOOO++++....oooo....OOOO%%%%XXXX############",
"############++++++++%%%%++++++++OOOO....++++....XXXX####++++####",
"############++++++++%%%%++++++++OOOO....++++....XXXX####++++####",
"############++++++++%%%%++++++++OOOO....++++....XXXX####++++####",
"############++++++++%%%%++++++++OOOO....++++....XXXX####++++####",
"####++++########%%%%$$$$%%%%XXXXOOOOOOOO....XXXX++++++++XXXX####",
"####++++########%%%%$$$$%%%%XXXXOOOOOOOO....XXXX++++++++XXXX####",
"####++++########%%%%$$$$%%%%XXXXOOOOOOOO....XXXX++++++++XXXX####",
"####++++########%%%%$$$$%%%%XXXXOOOOOOOO....XXXX++++++++XXXX####",
"########++++++++OOOO%%%%    ....OOOO....++++++++++++++++########",
"########++++++++OOOO%%%%    ....OOOO....++++++++++++++++########",
"########++++++++OOOO%%%%    ....OOOO....++++++++++++++++########",
"########++++++++OOOO%%%%    ....OOOO....++++++++++++++++########",
"############XXXXXXXX    OOOOOOOO................OOOOXXXX########",
"############XXXXXXXX    OOOOOOOO................OOOOXXXX########",
"############XXXXXXXX    OOOOOOOO................OOOOXXXX########",
"############XXXXXXXX    OOOOOOOO................OOOOXXXX########",
"############@@@@@@@@                        oooo@@@@############",
"############@@@@@@@@                        oooo@@@@############",
"############@@@@@@@@                        oooo@@@@############",
"############@@@@@@@@                        oooo@@@@############",
"################@@@@@@@@@@@@@@@@@@@@@@@@@@@@@@@@################",
"################@@@@@@@@@@@@@@@@@@@@@@@@@@@@@@@@################",
"################@@@@@@@@@@@@@@@@@@@@@@@@@@@@@@@@################",
"################@@@@@@@@@@@@@@@@@@@@@@@@@@@@@@@@################",
"################################################################",
"################################################################",
"################################################################",
"################################################################"
};
