/* XPM */
static char *_b1db6519a424b85c2eb0a420071d0d9SD7jI9UwQv3c7CYr[] = {
/* columns rows colors chars-per-pixel */
"64 64 8 1 ",
"  c #505C12",
". c #505B19",
"X c #68781F",
"o c #67940D",
"O c #68931F",
"+ c #74A812",
"@ c #CA9436",
"# c #E3AC3D",
/* pixels */
"################################################################",
"################################################################",
"################################################################",
"################################################################",
"################################################################",
"################################################################",
"################################################################",
"################################################################",
"################################################################",
"################################################################",
"################################################################",
"################################################################",
"################################################################",
"################################################################",
"################################################################",
"################################################################",
"################################################################",
"################################################################",
"################################################################",
"################################################################",
"################################################################",
"################################################################",
"################################################################",
"################################################################",
"################################################################",
"################################################################",
"################################################################",
"################################################################",
"################################################################",
"################################################################",
"################################################################",
"################################################################",
"################################################################",
"################################################################",
"################################################################",
"################################################################",
"############################....################################",
"############################....################################",
"############################....################################",
"############################....################################",
"################....############OOOO####....####################",
"################....############OOOO####....####################",
"################....############OOOO####....####################",
"################....############OOOO####....####################",
"####################....####....########++++####++++############",
"####################....####....########++++####++++############",
"####################....####....########++++####++++############",
"####################....####....########++++####++++############",
"############XXXXXXXX    ####OOOO########....####OOOOXXXX########",
"############XXXXXXXX    ####OOOO########....####OOOOXXXX########",
"############XXXXXXXX    ####OOOO########....####OOOOXXXX########",
"############XXXXXXXX    ####OOOO########....####OOOOXXXX########",
"############@@@@@@@@                        oooo@@@@############",
"############@@@@@@@@                        oooo@@@@############",
"############@@@@@@@@                        oooo@@@@############",
"############@@@@@@@@                        oooo@@@@############",
"################@@@@@@@@@@@@@@@@@@@@@@@@@@@@@@@@################",
"################@@@@@@@@@@@@@@@@@@@@@@@@@@@@@@@@################",
"################@@@@@@@@@@@@@@@@@@@@@@@@@@@@@@@@################",
"################@@@@@@@@@@@@@@@@@@@@@@@@@@@@@@@@################",
"################################################################",
"################################################################",
"################################################################",
"################################################################"
};
