/* XPM */
static char *c26f8ced6df049d39f382bfc624aca9dA1lDlQQS1wQcBhTh[] = {
/* columns rows colors chars-per-pixel */
"64 64 62 1 ",
"  c #788C29",
". c #7F9429",
"X c #7F942A",
"o c #80942A",
"O c #80942B",
"+ c #80952C",
"@ c #81962D",
"# c #859934",
"$ c #869A37",
"% c #889B39",
"& c #899C3A",
"* c #8B9E3F",
"= c #8C9E3E",
"- c #E3AC3D",
"; c #8C9F40",
": c #8EA043",
"> c #8EA044",
", c #91A349",
"< c #93A44C",
"1 c #94A54E",
"2 c #95A650",
"3 c #99A956",
"4 c #9AAB59",
"5 c #9BAB5B",
"6 c #A3B268",
"7 c #A5B36B",
"8 c #A6B56E",
"9 c #A7B56F",
"0 c #A9B772",
"q c #ABB876",
"w c #AFBB7D",
"e c #B3BF83",
"r c #B4C085",
"t c #B5C087",
"y c #B7C28A",
"u c #B9C48F",
"i c #BDC795",
"p c #C3CC9E",
"a c #C3CC9F",
"s c #C4CCA0",
"d c #CAD1AA",
"f c #CED5B2",
"g c #D4DABC",
"h c #D5DBBF",
"j c #D8DDC3",
"k c #DEE2CC",
"l c #E1E4D2",
"z c #E2E6D5",
"x c #E4E7D8",
"c c #E5E8D9",
"v c #E6E9DC",
"b c #E8EADE",
"n c #E9EBE0",
"m c #ECEEE6",
"M c #EEF0E9",
"N c #F2F3EF",
"B c #F2F3F0",
"V c #F3F4F2",
"C c #F4F4F3",
"Z c #F5F5F4",
"A c gray96",
"S c #F6F6F6",
/* pixels */
"----------------------------------------------------------------",
"----------------------------------------------------------------",
"----------------------------------------------------------------",
"----------------------------------------------------------------",
"----------------------------------------------------------------",
"----------------------------------------------------------------",
"----------------------------------------------------------------",
"----------------------------------------------------------------",
"----------------------------------------------------------------",
"----------------------------------------------------------------",
"----------------------------------------------------------------",
"----------------------------------------------------------------",
"----------------------------------------------------------------",
"----------------------------------------------------------------",
"----------------------------------------------------------------",
"----------------------------------------------------------------",
"----------------------------------------------------------------",
"------..........................................................",
"------..........................................................",
"------..........................................................",
"------..........................................................",
"---.............................................................",
"---.............................................................",
"---.............................................................",
"... ........................O...................................",
"..............66666666666666OO.........:66666666666666666#......",
".............+SSSSSSSSSSSSSS%O.........rSSSSSSSSSSSSSSSSS1......",
".............+SSSSSSSSSSSSSC%..O.......eSSSSSSSSSSSSSSSSS1......",
".............+SSSSSSSSSSSSSC,%%#.......eSSSSSSSSSSSSSSSSS5%&#O..",
"..........rcccSSSB1<<<<<qSSSSSSg....gccmSSS0<<<<<<<<,qSSSSSSc+..",
"..........iSSSSSSNO.....5SSSSSSg....zSSSSSS3.........5SSSSSSc...",
"..........iSSSSSSBO.....5SSSSSSg....zSSSSSS3.........5SSSSSSc...",
".......ippkSSCiytrX.....:yyyyyy8....zSSSSSS3.........4CSSSSSvo..",
".......nSSSSSS=.........X...........zSSSSSS3.........5CCSSSSvO..",
".......nSSSSSS=.........XX..........zSSSSSS3.........5CSSSSSv...",
"......onSSSSSS=..........X..........zSSSSSS3........O5CSSSSSv...",
".......nSSSSSS=.....................zSSSSSS3.........5SSSSSSv...",
".......bSSSSSC=.....................zSSSSSS3.........3CSSSSSv...",
"......obSSSSSS*.....................zSSSSSS3.........3SSSSSSv...",
".......bSSSSSZ*................X....zSSSSSS5.........5SSSSSSv...",
".......bSSSSSS*.........XXXXXXXX....zSSSSSS3.........4SSSSSSv...",
".......nSSSSSV*...........XX.XXX....zSSSSSS3.........4ZSSSSSv...",
".......bVSVSSS2&*$........XXXXXX....zSSSSSS3.........5ZSSSSSv...",
"..........:SSSSSSh......eSSSAASj....zSSSSSS3.........5SSSSSSv...",
"..........:SSSSSZh......wZZSSSZg....zSSSSSS3..O.....O4ZSSSSSv...",
"..........:SSSSSSh......eSZASAZh....zSSSSSS3..X.....O5ZSSSSZv...",
"..........&hkhVSSxyyyrrrfSSShiir....djjlSSSpeyeeyrrrrsZSSgppu...",
"..............MSSSSSSSSSSSSS7..........6SSSSSSSSSSSSSSSSS9......",
"..............MSZZASSSASSSSS7..........7AAZZSSZZSSSSZSSSS8......",
"..............MSZZASSSZZSSSS7..........7SAZZSSSZSSSSZZSSS8......",
"..............:=>;;>>>>;>;>>...........X>>;>>>>>:*::*::*>.X.....",
"....................X.......................X.............XX....",
"---.............................................................",
"---.............................................................",
"---.............................................................",
"------..........................................................",
"------..........................................................",
"------..........................................................",
"----------------------------------------------------------------",
"----------------------------------------------------------------",
"----------------------------------------------------------------",
"----------------------------------------------------------------",
"----------------------------------------------------------------",
"----------------------------------------------------------------"
};
