/* XPM */
static char *_d82544a22174674f7d23120a7b3b2cegrTvO9pgWa2uDOBu[] = {
/* columns rows colors chars-per-pixel */
"64 64 50 1 ",
"  c #798D2A",
". c #7F9429",
"X c #80942B",
"o c #80952C",
"O c #82972F",
"+ c #839730",
"@ c #849831",
"# c #849833",
"$ c #869A36",
"% c #899C3B",
"& c #E3AC3D",
"* c #8FA246",
"= c #90A247",
"- c #91A348",
"; c #97A752",
": c #98A855",
"> c #9DAC5D",
", c #9EAD5F",
"< c #9FAE60",
"1 c #9FAE62",
"2 c #A2B166",
"3 c #A3B268",
"4 c #A7B56E",
"5 c #A8B670",
"6 c #AEBB7B",
"7 c #B6C188",
"8 c #B9C38D",
"9 c #C0C999",
"0 c #C5CEA3",
"q c #CCD3AE",
"w c #CCD3AF",
"e c #CDD3AF",
"r c #D2D8B9",
"t c #D6DBBF",
"y c #D7DDC2",
"u c #DCE0C9",
"i c #DCE1CB",
"p c #E2E6D5",
"a c #E5E8D9",
"s c #E8EBDF",
"d c #EBEDE3",
"f c #EBEDE4",
"g c #ECEEE5",
"h c #ECEEE6",
"j c #EEEFE9",
"k c #EEF0EA",
"l c #F1F2EE",
"z c #F3F4F2",
"x c #F4F4F3",
"c c #F6F6F6",
/* pixels */
"&&&&&&&&&&&&&&&&&&&&&&&&&&&&&&&&&&&&&&&&&&&&&&&&&&&&&&&&&&&&&&&&",
"&&&&&&&&&&&&&&&&&&&&&&&&&&&&&&&&&&&&&&&&&&&&&&&&&&&&&&&&&&&&&&&&",
"&&&&&&&&&&&&&&&&&&&&&&&&&&&&&&&&&&&&&&&&&&&&&&&&&&&&&&&&&&&&&&&&",
"&&&&&&&&&&&&&&&&&&&&&&&&&&&&&&&&&&&&&&&&&&&&&&&&&&&&&&&&&&&&&&&&",
"&&&&&&&&&&&&&&&&&&&&&&&&&&&&&&&&&&&&&&&&&&&&&&&&&&&&&&&&&&&&&&&&",
"&&&&&&&&&&&&&&&&&&&&&&&&&&&&&&&&&&&&&&&&&&&&&&&&&&&&&&&&&&&&&&&&",
"&&&&&&&&&&&&&&&&&&&&&&&&&&&&&&&&&&&&&&&&&&&&&&&&&&&&&&&&&&&&&&&&",
"&&&&&&&&&&&&&&&&&&&&&&&&&&&&&&&&&&&&&&&&&&&&&&&&&&&&&&&&&&&&&&&&",
"&&&&&&&&&&&&&&&&&&&&&&&&&&&&&&&&&&&&&&&&&&&&&&&&&&&&&&&&&&&&&&&&",
"&&&&&&&&&&&&&&&&&&&&&&&&&&&&&&&&&&&&&&&&&&&&&&&&&&&&&&&&&&&&&&&&",
"&&&&&&&&&&&&&&&&&&&&&&&&&&&&&&&&&&&&&&&&&&&&&&&&&&&&&&&&&&&&&&&&",
"&&&&&&&&&&&&&&&&&&&&&&&&&&&&&&&&&&&&&&&&&&&&&&&&&&&&&&&&&&&&&&&&",
"&&&&&&&&&&&&&&&&&&&&&&&&&&&&&&&&&&&&&&&&&&&&&&&&&&&&&&&&&&&&&&&&",
"&&&&&&&&&&&&&&&&&&&&&&&&&&&&&&&&&&&&&&&&&&&&&&&&&&&&&&&&&&&&&&&&",
"&&&&&&&&&&&&&&&&&&&&&&&&&&&&&&&&&&&&&&&&&&&&&&&&&&&&&&&&&&&&&&&&",
"&&&&&&&&&&&&&&&&&&&&&&&&&&&&&&&&&&&&&&&&&&&&&&&&&&&&&&&&&&&&&&&&",
"&&&&&&&&&&&&&&&&&&&&&&&&&&&&&&&&&&&&&&&&&&&&&&&&&&&&&&&&&&&&&&&&",
".........&&&&&&&&&&&&&&.........................................",
".........&&&&&&&&&&&&&&.........................................",
".........&&&&&&&&&&&&&&.........................................",
".........&&&&&&&&&&&&&&.........................................",
".........&&&&&&&&&&.............................................",
".........&&&&&&&&&&.............................................",
".........&&&&&&&&&&.............................................",
".........&&&&&&&................................................",
".........&&&&&&&..............,iiiiiiiiii:..............riiiiiii",
".........&&&&&&&..............4cccccccccc<..............sccccccc",
".........&&&&&&&..............4cccccccccc,.............Xsccccccc",
".........&&&&&&&...........ooo5cccccccccc8221X......XXXosccccccc",
".........&&&&&&&..........occccccz...,ccccccho......-ccccccd....",
".........&&&&&&&..........occccccz...,ccccccho......-ccccccd....",
".........&&&&&&&..........occccccz...,cccccch+......-ccccccd....",
".........&&&&&&&.......*tttcccd222...+***icczaaa6...-ccccccd....",
".........&&&&&&&.......;ccccccp..........ycccccc7...-ccccccd....",
".........&&&&&&&.......;ccccccp..........ycccccc7...-ccccccd.X..",
".........&&&&&&&.......;ccccccp..........ycccccc7...=lllxcck2332",
".........&&&&&&&.......;ccccccp..........ycccccc7.....XXwccccccc",
".........&&&&&&&.......;ccccccp..........ycccccc7.......wccccccc",
".......................;ccccccp..........ycccccc7.......qccccccc",
".......................;cccccckqwwwwqqqqqhcccccc7.......37777777",
".......................;cccccccccccccccccccccccc7.......XX......",
".......................;cccccccccccccccccccccccc7......o........",
".......................;cccccczhhhhhhhhhhzcccccc7....@@#+@@@....",
".......................;ccccccp..........ycccccc7...-cccccch....",
".......................;ccccccp..........ycccccc7...-ccccccf....",
".......................;ccccccp..........ycccccc7...=ccccccd....",
"99999999999999.o.......;ccccccp..........ycccccc7...%000accl9980",
"cccccccccccccc+........;ccccccp..........ycccccc7......Xqccccccc",
"cccccccccccccc#........;ccccccp..........ycccccc7.......wccccccc",
"cccccccccccccc#........;ccccccp..........ycccccc7.......wccccccc",
"%##%$$$#$$$$$$.........o$$$$#%@..........#$$$$$$+.......+#%#$$%#",
"..............................o.................................",
"................................................................",
"................................................................",
"................................................................",
"................................................................",
"................................................................",
"                                                                ",
"&&&&&&&&&&&&&&&&&&&&&&&&&&&&&&&&&&&&&&&&&&&&&&&&&&&&&&&&&&&&&&&&",
"&&&&&&&&&&&&&&&&&&&&&&&&&&&&&&&&&&&&&&&&&&&&&&&&&&&&&&&&&&&&&&&&",
"&&&&&&&&&&&&&&&&&&&&&&&&&&&&&&&&&&&&&&&&&&&&&&&&&&&&&&&&&&&&&&&&",
"&&&&&&&&&&&&&&&&&&&&&&&&&&&&&&&&&&&&&&&&&&&&&&&&&&&&&&&&&&&&&&&&",
"&&&&&&&&&&&&&&&&&&&&&&&&&&&&&&&&&&&&&&&&&&&&&&&&&&&&&&&&&&&&&&&&",
"&&&&&&&&&&&&&&&&&&&&&&&&&&&&&&&&&&&&&&&&&&&&&&&&&&&&&&&&&&&&&&&&"
};
