/* XPM */
static char *_2ac8f83833e459c96c6a1b2d32811f3n2TmfH201v4X25Hf[] = {
/* columns rows colors chars-per-pixel */
"64 64 85 1 ",
"  c #7F9328",
". c #7F9428",
"X c #7F9429",
"o c #7F942A",
"O c #809429",
"+ c #80942A",
"@ c #81952D",
"# c #82952C",
"$ c #83962F",
"% c #82972F",
"& c #859630",
"* c #879733",
"= c #849832",
"- c #869A36",
"; c #8B9938",
": c #8D9A3B",
"> c #8E9A3C",
", c #899D3C",
"< c #8B9E3D",
"1 c #E3AC3D",
"2 c #FFFC36",
"3 c #FFFB38",
"4 c #8B9E40",
"5 c #8C9F41",
"6 c #919B40",
"7 c #949D44",
"8 c #969D46",
"9 c #979E48",
"0 c #999F4B",
"q c #8EA043",
"w c #8EA143",
"e c #8FA146",
"r c #92A44B",
"t c #95A54D",
"y c #96A750",
"u c #9EA150",
"i c #97A853",
"p c #A2A255",
"a c #AAA85B",
"s c #A0AF62",
"d c #AEA866",
"f c #B0A967",
"g c #B7AE69",
"h c #A3B269",
"j c #A7B56F",
"k c #A8B671",
"l c #ABB876",
"z c #ACB977",
"x c #B0BC7F",
"c c #FFF34F",
"v c #FEF251",
"b c #B1BD80",
"n c #D8BA99",
"m c #D4DABD",
"M c #D5DBBE",
"N c #E7C1AD",
"B c #E9C2AF",
"V c #FFD8A4",
"C c #FCD3AE",
"Z c #F1C7B7",
"A c #F0C5BA",
"S c #FFD4B0",
"D c #FCD1B4",
"F c #FFD2B6",
"G c #D8DDC3",
"H c #F6C7C1",
"J c #F7C8C2",
"K c #FFCDC6",
"L c #FCCAC8",
"P c #FDCBCA",
"I c #FFCCCC",
"U c #DBE0C8",
"Y c #DCE1CB",
"T c #DDE1CB",
"R c #DEE2CD",
"E c #E1E5D2",
"W c #E4E7D7",
"Q c #E8EADE",
"! c #E8EBDF",
"~ c #EAECE2",
"^ c #EEEFEA",
"/ c #EEF0EA",
"( c #F5F5F4",
") c gray96",
"_ c #F6F6F6",
/* pixels */
"1111111111111111111111111111111111111111111111111111111111111111",
"1111111111111111111111111111111111111111111111111111111111111111",
"111111111111111111111111111111111111111XXXXXXXXXXXXXXXXw11111111",
"111111111111111111111111111111111111111XXXXXXXXXXXXXXXXw11111111",
"111111111111111111111111111111111111111XXXXXXXX XXXXXXXw11111111",
"111111111111111111111111111111111111111XXXXXXXXXXXX.XXXw11111111",
"111111111111111111111111111111111111111XXXXX@@@@+@@+XXXw11111111",
"111111111111111111111111111111111111111XXXX8IIIIIIA+XXXw11111111",
"111111111111111111111111111111111111111XX  8IIIIIIAXXX w11111111",
"11111111111111111111111111111111XXXXXXXXXXX8IIIIIIAXXXXXXXXXXXt1",
"11111111111111111111111111111111XXXXXXX+XXX8IIIIIIAXXXO.XXXXXXt1",
"11111111111111111111111111111111XXXXXXX+XXX8IIIIIIAXXX+OXXXXXXt1",
"11111111111111111111111111111111XXXXXX++XXX8IIIIIIAX#O++++XXXXt1",
"11111111111111111111111111111111XXXXX@@@@@XuKKKKKKZ@=@$$$@XXXXt1",
"11111111111111111111111111111111XXXX:IIIIIIS222222cIIIIIIBXXXXt1",
"11111111111111111111111111111111XXXX>IIIIIIS222222cIIIIIIBXXXXt1",
"11111111111111111111111111111111XXXX:IIIIIIS222222cIIIIIIBXXXXt1",
"XXXXXXXXXXXXXXXXXXXXXXXXXXXXXXXXXXXX:IIIIIIS222222cIIIIIIBXXXXt1",
"XXXXXXXXXXXXXXXXXXXXXXXXXXXXXXXXXXXX:IIIIIIS222222cIIIIIIBXXXXt1",
"XXXXXXXXXXXXXXXXXXXXXXXXXXXXXXXXXXXX:IIIIIIS222222cIIIIIIBXXXXt1",
"XXXXXXXXXXXXXXXXXXXXXXXXXXXXXXXXXXXX:PPPPPPC333333vPPPPLINXXXXt1",
"XXXXXXXXXXXXXXXXXXXXXXXXXXXXXXXXXXXXXXXXXXX:IIIIIIJXXXX..XXXXXt1",
"XXXXXXXXXXXXXXXXXXXXXXXXXXXXXXXXXXXXXXXXXXX:IIIIIIJOXXX...XXXXt1",
"XXXXXXXXXXXXXXXXXXXXXXXXXXXXXXXXXXXXXXXXXXX:IIIIIIJ@XXX...XXXXt1",
"XXXXXXXXXXXXXXXXXXXXXXXXXXXXXXXXXXXXXXXXXXX:IIIIIIJ XX  ..XXX+t1",
"_____mXXXXXXXXXXXE______rXXXXXXXXXi______~X:IIIIIIJ@XX  XXXX@+y1",
"_____mXXXXXXXXXXXE______rXXXXXXXXXi______~X>IIIIIIHXXX  XXXw1111",
"_____mXXXXXXXXXXXE______rXXXXXXXXXi______~X>PPPPPIH&9999@XXw1111",
"_____^TTTXXXXXXXXE______rXXXXXXXXXi______~XXXXXX XX6IIIItXXX+XXX",
"XXW______@XXXXXXXE______rXXXXXXXXXi______~XXXXXXXXX6IIIItXXXXXXX",
"XXW______@ XXXXXXE______rXXXXXXXXXi______~XXXXXXXXX6IIPP0OXXXXXX",
"XXW______@  XXXXXE______rXXXXXXXXXi______~XXXXXXXXX6IIPP0OXXXXXX",
"XXXXXXXXXXXXXXXXXE______rXXXXXXXXXi______~XXXXX&PPPD3333CLPLd X ",
"XXXXXXXXXXXXXXXXXE______rXXXXXXXXXi______~XXXXX*IIID2222CIIId XX",
"XXXXXXXXXXXXXXXXXE______rXXXXXXXXXi______~XXXXX*IIID2222SIIIfXXX",
"Q~!!!~!~~oXXXXXXXE______YGGGGGGGGGR______~XXXXX*IIID2222SIIIfXXX",
"________)ooooooXXE_______________________~XXXXXXpppaVVVVgpup:XXX",
"________)oXXooXXXE_______________________~XXXXXXXX ;IIIIuXXX XXX",
"________)===oo.oXE______))____))_________~XXXXXXXXX:IIIIuXXXX XX",
"-----k______U.o.XE______k=X=o=oX@@4______~XXXXXXXXX:IIIIuXXX<<<<",
"XXXXXh______U..oXE______jXXXXXXX@X<______~ XXXXXXXX&nnnn7XX41111",
"XXXXXh______Uoo.XE______jXXXXXXX+X<______~XXXXXXXXXXXXXXXX w1111",
"XXXXXh______Uo.oXE______j XXXXXXX 4______~XXXXXXXXXXXXXXXXX<1111",
"XXXXXh______U.o.XE______kXXXXXXXX 4______~XXXXXXXXXXXXXXXXXw1111",
"XXXXXh______UXXXXE______k  XXXXXXX4)_____~XXXXXXXXXXXXXXXXXX1111",
",,,,,l___///GXXXXE______k XXXXXXXX4)_____~XXXXXXXXX1111111111111",
"_________s....XXXE______k XXXXXXXX4)_____~XXXXXXXXX1111111111111",
"_________so...XXXE______kXXXXXXXXX4______~XXXXXXXXX1111111111111",
"_________sXXXXXXXE______kXXXXXXXXX4______~XXXXXXXXX1111111111111",
"xbbbbbbbxwXXXXXXXkbbbbbbeXXXXXXXXX&bbbbbbzXXXXXXXXX1111111111111",
"XXXXXXXXXXXXXXXXXXXXXXXXXXXXXXXXXXXXXXXXXXXXXXXXXXX1111111111111",
"XXXXXXXXXXXXXXXXXXXXXXXXXXXXXXXXXXXXXXXXXXXXXXXXXXX1111111111111",
"XXXXXXXXXXXXXXXXXXXXXXXXXXXXXXXXXXXXXXXXXXXXXXXXXXX1111111111111",
"XXXXXXXXXXXXXXXXXXXXXXXXXXXXXXXXXXXXXXXXXXXXXXXXXXX1111111111111",
"XXXXXXXXXXXXXXXXXXXXXXXXXXXXXXXXXXXXXXXXXXXXXXXXXXX1111111111111",
"XXXXXXXXXXXXXXXXXXXXXXXXXXXXXXXXXXXXXXXXXXXXXXXXXXX1111111111111",
"XXXXXXXXXXXXXXXXXXXXXXXXXXXXXXXXXXXXXXXXXXXXXXXXXXX1111111111111",
"XXXXXXXXXXXXXXXXXXXXXXXXXXXXXXXXXXXXXXXXXXXXXXXXXXX1111111111111",
"1111111111111111111111111111111111111111111111111111111111111111",
"1111111111111111111111111111111111111111111111111111111111111111",
"1111111111111111111111111111111111111111111111111111111111111111",
"1111111111111111111111111111111111111111111111111111111111111111",
"1111111111111111111111111111111111111111111111111111111111111111",
"1111111111111111111111111111111111111111111111111111111111111111"
};
