/* XPM */
static char *f4f07da352fe4bd19237ae04fb36627247cGYwDRVf5P2GQG[] = {
/* columns rows colors chars-per-pixel */
"64 64 44 1 ",
"  c #7F9429",
". c #81962D",
"X c #82962E",
"o c #839730",
"O c #839731",
"+ c #839831",
"@ c #869A35",
"# c #879A37",
"$ c #879B38",
"% c #E3AC3D",
"& c #90A248",
"* c #99A956",
"= c #9EAD5F",
"- c #A0AF62",
"; c #ABB775",
": c #ACB977",
"> c #ADB978",
", c #AFBB7D",
"< c #B0BC7F",
"1 c #B3BE84",
"2 c #B6C189",
"3 c #B8C38B",
"4 c #BBC591",
"5 c #BDC795",
"6 c #C2CB9E",
"7 c #C6CFA4",
"8 c #C7CFA6",
"9 c #CED4B1",
"0 c #D1D7B6",
"q c #DCE1CA",
"w c #DEE2CE",
"e c #DFE3CF",
"r c #E0E4D1",
"t c #E7EADD",
"y c #E9ECE1",
"u c #EBEDE4",
"i c #ECEEE5",
"p c #EDEFE8",
"a c #F1F2EE",
"s c #F3F3F1",
"d c #F3F4F2",
"f c #F5F5F4",
"g c gray96",
"h c #F6F6F6",
/* pixels */
"%%%%%%%%%%%%%%%%%%%%%%%%%%%%%%%%%%%%%%%%%%%%%%%%%%%%%%%%%%%%%%%%",
"%%%%%%%%%%%%%%%%%%%%%%%%%%%%%%%%%%%%%%%%%%%%%%%%%%%%%%%%%%%%%%%%",
"%%%%%%%%%%%%%%%%%%%%%%%%%%%%%%%%%%%%%%%%%%%%%%%%%%%%%%%%%%%%%%%%",
"%%%%%%%%%%%%%%%%%%%%%%%%%%%%%%%%%%%%%%%%%%%%%%%%%%%%%%%%%%%%%%%%",
"%%%%%%%%%%%%%%%%%%%%%%%%%%%%%%%%%%%%%%%%%%%%%%%%%%%%%%%%%%%%%%%%",
"%%%%%%%%%%%%%%%%%%%%%%%%%%%%%%%%%%%%%%%%%%%%%%%%%%%%%%%%%%%%%%%%",
"%%%%%%%%%%%%%%%%%%%%%%%%%%%%%%%%%%%%%%%%%%%%%%%%%%%%%%%%%%%%%%%%",
"%%%%%%%%%%%%%%%%%%%%%%%%%%%%%%%%%%%%%%%%%%%%%%%%%%%%%%%%%%%%%%%%",
"%%%%%%%%%%%%%%%%%%%%%%%%%%%%%%%%%%%%%%%%%%%%%%%%%%%%%%%%%%%%%%%%",
"%%%%%%%%%%%%%%%%%%%%%%%%%%%%%%%%%%%%%%%%%%%%%%%%%%%%%%%%%%%%%%%%",
"%%%%%%%%%%%%%%%%%%%%%%%%%%%%%%%%%%%%%%%%%%%%%%%%%%%%%%%%%%%%%%%%",
"%%%%%%%%%%%%%%%%%%%%%%%%%%%%%%%%%%%%%%%%%%%%%%%%%%%%%%%%%%%%%%%%",
"%%%%%%%%%%%%%%%%%%%%%%%%%%%%%%%%%%%%%%%%%%%%%%%%%%%%%%%%%%%%%%%%",
"%%%%%%%%%%%%%%%%%%%%%%%%%%%%%%%%%%%%%%%%%%%%%%%%%%%%%%%%%%%%%%%%",
"%%%%%%%%%%%%%%%%%%%%%%%%%%%%%%%%%%%%%%%%%%%%%%%%%%%%%%%%%%%%%%%%",
"%%%%%%%%%%%%%%%%%%%%%%%%%%%%%%%%%%%%%%%%%%%%%%%%%%%%%%%%%%%%%%%%",
"%%%%%%%%%%%%%%%%%%%%%%%%%%%%%%%%%%%%%%%%%%%%%%%%%%%%%%%%%%%%%%%%",
"                                                                ",
"                                                                ",
"                                                                ",
"                                                                ",
"                                                                ",
"                                                                ",
"                                                                ",
"                                                                ",
"X222222<          -222222*    222222222222222222222222@ X222222:",
"@hhhhhhy          7hhhhhh3    hhhhhhhhhhhhhhhhhhhhhhhh&  hhhhhhr",
"@hhhhhhy          7hhhhhh3    hhhhhhhhhhhhhhhhhhhhhhhh&  hhhhhhr",
"@hhhhhhy          7hhhhhh3    hhhhhhhhhhhhhhhhhhhhhhhh&  hhhhhhr",
"@hhhhhhy          7hhhhhh3    hhhhhhh$++++++++++++++++   hhhhhhr",
"@hhhhhhy          7hhhhhh3    hhhhhhhO                   hhhhhhr",
"@hhhhhhy          7hhhhhh3    hhhhhhhO                   hhhhhhr",
"@hhhgffy + =;;:+ X7hhhhhf2   +hhhhhhhXX                  dhhhhhw",
"@hhhhffi+ +0ffp +X7hhhhhf,  + hghhhhhO                   hhhhhhr",
"$hhhhhfi  X0hhaX +7hhhhhf5   +ffhhhhh+  XXXX   X        Xhhhhhhr",
"@fhhhhfi   0hha   7hhhhhd2  + ffhhhhh@OXXXXXXXXX+XX      dhhhhhr",
"$hhhhhhfypifhhfpryaghhhhf2   +pfhhhhhddddaddddddddqX     hhhhhhr",
"@hhhhhhhaaffhhhhhhhghhhhf5+ + ffhhhhhhhhhhhhhhhhdhq     Ohhhhhhr",
"@hhhhhhhhhfhhhhhhhhhhhffa2 + +hhhhhhhhhhhhhhhhhhhhw      dhhhhhr",
"@hhhhhhhhhhhhhhhhhhhhffff:+ X hghhhhh5444444444344,X    Xdhhhhhr",
"@hhhhhhhhhhhhhhhhhhhhhhhf3 + +ffhhhhhOX                 Xdhhhhhr",
"@hhhhhhhhhhhhhfghhhhhhhhf3X + ffhhhhhX                  Xdhhhhhr",
"@hhhhhhhhhhghgghhhhhhhhhf3 +  pfhhhhhX                  Xdhhhhhr",
"@hhhhhhhhhh0 X hhhhhhhhhf:+   afhhhhhX                   dhhhhhr",
"@hhhhhhhhhh7 +Xfhhhhhhhhf3 + XhhhhhhhX                   hhhhhhr",
"@hhhhhhhffh7+ Xghhhhhhhhf3+ + hhhhhhhO                  Xhhhhhhr",
"@hhhhhhh000: ++qeephhhhhg3   +fhhhhhhOX               + Xahhhhht",
"@hhhhhhd X  +  XX 6hhhhha,  + ffhhhhhX                 XXdhhhhhh",
"@hhhgfff X        3dgfdhf3 X  pfhhhdd         %%%        adhhhhh",
"@hhhhpff X        6dhhdpf3 X  adhghpdX        %%%        ddahhhh",
" XX     +         +   +  +XX     X  XX        %%%       +      X",
"  XX             +  XX ++ +      X  +         %%%        +   X X",
"                                +             %%%               ",
"                                 +            %%%               ",
"                                              %%%               ",
"                                              %%%               ",
"                                              %%%               ",
"                                              %%%               ",
"%%%%%%%%%%%%%%%%%%%%%%%%%%%%%%%%%%%%%%%%%%%%%%%%%%%%%%%%%%%%%%%%",
"%%%%%%%%%%%%%%%%%%%%%%%%%%%%%%%%%%%%%%%%%%%%%%%%%%%%%%%%%%%%%%%%",
"%%%%%%%%%%%%%%%%%%%%%%%%%%%%%%%%%%%%%%%%%%%%%%%%%%%%%%%%%%%%%%%%",
"%%%%%%%%%%%%%%%%%%%%%%%%%%%%%%%%%%%%%%%%%%%%%%%%%%%%%%%%%%%%%%%%",
"%%%%%%%%%%%%%%%%%%%%%%%%%%%%%%%%%%%%%%%%%%%%%%%%%%%%%%%%%%%%%%%%",
"%%%%%%%%%%%%%%%%%%%%%%%%%%%%%%%%%%%%%%%%%%%%%%%%%%%%%%%%%%%%%%%%"
};
