/* XPM */
static char *_c0265c9d939450ea838edc166fa8601VhbVWpw1Tz6cAav4[] = {
/* columns rows colors chars-per-pixel */
"64 64 16 1 ",
"  c black",
". c #80133B",
"X c #AD7253",
"o c #BD7653",
"O c #B97A57",
"+ c #C27E5B",
"@ c #CA9436",
"# c #E3AC3D",
"$ c #DE916A",
"% c gray74",
"& c #E09FB6",
"* c #EB9DBA",
"= c #D4D2D4",
"- c gray88",
"; c #EBE8EB",
": c white",
/* pixels */
"################################################################",
"################################################################",
"################################################################",
"################################################################",
"################        ############        ####################",
"################        ############        ####################",
"################        ############        ####################",
"################        ############        ####################",
"############        OOOO                OOOO        ############",
"############        OOOO                OOOO        ############",
"############        OOOO                OOOO        ############",
"############        OOOO                OOOO        ############",
"####        ::::----;;;;oooooooo++++;;;;;;;;::::            ####",
"####        ::::----;;;;oooooooo++++;;;;;;;;::::            ####",
"####        ::::----;;;;oooooooo++++;;;;;;;;::::            ####",
"####        ::::----;;;;oooooooo++++;;;;;;;;::::            ####",
"    ::::::::&&&&&&&&;;;;;;;;oooo++++;;;;;;;;::::++++    ::::    ",
"    ::::::::&&&&&&&&;;;;;;;;oooo++++;;;;;;;;::::++++    ::::    ",
"    ::::::::&&&&&&&&;;;;;;;;oooo++++;;;;;;;;::::++++    ::::    ",
"    ::::::::&&&&&&&&;;;;;;;;oooo++++;;;;;;;;::::++++    ::::    ",
"    ====----====    ;;;;;;;;;;;;;;;;;;;;;;;;XXXX++++    ;;;;    ",
"    ====----====    ;;;;;;;;;;;;;;;;;;;;;;;;XXXX++++    ;;;;    ",
"    ====----====    ;;;;;;;;;;;;;;;;;;;;;;;;XXXX++++    ;;;;    ",
"    ====----====    ;;;;;;;;;;;;;;;;;;;;;;;;XXXX++++    ;;;;    ",
"                ;;;;;;;;;;;;        ;;;;;;;;;;;;::::            ",
"                ;;;;;;;;;;;;        ;;;;;;;;;;;;::::            ",
"                ;;;;;;;;;;;;        ;;;;;;;;;;;;::::            ",
"                ;;;;;;;;;;;;        ;;;;;;;;;;;;::::            ",
"########    ====;;;;;;;;    ::::::::    ----;;;;    ::::    ####",
"########    ====;;;;;;;;    ::::::::    ----;;;;    ::::    ####",
"########    ====;;;;;;;;    ::::::::    ----;;;;    ::::    ####",
"########    ====;;;;;;;;    ::::::::    ----;;;;    ::::    ####",
"########    ====;;;;;;;;    ::::::::    ::::::::    ::::    ####",
"########    ====;;;;;;;;    ::::::::    ::::::::    ::::    ####",
"########    ====;;;;;;;;    ::::::::    ::::::::    ::::    ####",
"########    ====;;;;;;;;    ::::::::    ::::::::    ::::    ####",
"########    XXXXoooo;;;;====        ****....****....        ####",
"########    XXXXoooo;;;;====        ****....****....        ####",
"########    XXXXoooo;;;;====        ****....****....        ####",
"########    XXXXoooo;;;;====        ****....****....        ####",
"########    XXXXoooooooo;;;;====%%%%::::::::::::::::    ########",
"########    XXXXoooooooo;;;;====%%%%::::::::::::::::    ########",
"########    XXXXoooooooo;;;;====%%%%::::::::::::::::    ########",
"########    XXXXoooooooo;;;;====%%%%::::::::::::::::    ########",
"############                        ****************    ########",
"############                        ****************    ########",
"############                        ****************    ########",
"############                        ****************    ########",
"################    ====XXXXXXXX                    ############",
"################    ====XXXXXXXX                    ############",
"################    ====XXXXXXXX                    ############",
"################    ====XXXXXXXX                    ############",
"############@@@@    oooooooooooo;;;;;;;;$$$$    ################",
"############@@@@    oooooooooooo;;;;;;;;$$$$    ################",
"############@@@@    oooooooooooo;;;;;;;;$$$$    ################",
"############@@@@    oooooooooooo;;;;;;;;$$$$    ################",
"########@@@@@@@@                                @@@@############",
"########@@@@@@@@                                @@@@############",
"########@@@@@@@@                                @@@@############",
"########@@@@@@@@                                @@@@############",
"############@@@@@@@@@@@@@@@@@@@@@@@@@@@@@@@@@@@@################",
"############@@@@@@@@@@@@@@@@@@@@@@@@@@@@@@@@@@@@################",
"############@@@@@@@@@@@@@@@@@@@@@@@@@@@@@@@@@@@@################",
"############@@@@@@@@@@@@@@@@@@@@@@@@@@@@@@@@@@@@################"
};
