/* XPM */
static char *result[] = {
/* columns rows colors chars-per-pixel */
"64 64 16 1 ",
"  c black",
". c #80133B",
"X c #96593A",
"o c #9C6141",
"O c #B06F4C",
"+ c #AD7253",
"@ c #BD7653",
"# c #B97A57",
"$ c #C27E5B",
"% c #CA9436",
"& c #E3AC3D",
"* c #DE916A",
"= c #E187A8",
"- c #E09FB6",
"; c #EB9DBA",
": c white",
/* pixels */
"&&&&&&&&&&&&&&&&        &&&&&&&&&&&&        &&&&&&&&&&&&&&&&&&&&",
"&&&&&&&&&&&&&&&&        &&&&&&&&&&&&        &&&&&&&&&&&&&&&&&&&&",
"&&&&&&&&&&&&&&&&        &&&&&&&&&&&&        &&&&&&&&&&&&&&&&&&&&",
"&&&&&&&&&&&&&&&&        &&&&&&&&&&&&        &&&&&&&&&&&&&&&&&&&&",
"&&&&&&&&&&&&        ####                ####        &&&&&&&&&&&&",
"&&&&&&&&&&&&        ####                ####        &&&&&&&&&&&&",
"&&&&&&&&&&&&        ####                ####        &&&&&&&&&&&&",
"&&&&&&&&&&&&        ####                ####        &&&&&&&&&&&&",
"&&&&        OOOOOOOOoooo@@@@@@@@$$$$oooooooooooo            &&&&",
"&&&&        OOOOOOOOoooo@@@@@@@@$$$$oooooooooooo            &&&&",
"&&&&        OOOOOOOOoooo@@@@@@@@$$$$oooooooooooo            &&&&",
"&&&&        OOOOOOOOoooo@@@@@@@@$$$$oooooooooooo            &&&&",
"    oooooooo--------oooooooo@@@@$$$$oooooooooooo$$$$    oooo    ",
"    oooooooo--------oooooooo@@@@$$$$oooooooooooo$$$$    oooo    ",
"    oooooooo--------oooooooo@@@@$$$$oooooooooooo$$$$    oooo    ",
"    oooooooo--------oooooooo@@@@$$$$oooooooooooo$$$$    oooo    ",
"    XXXXXXXXXXXX    oooooooooooooooooooooooo++++$$$$    oooo    ",
"    XXXXXXXXXXXX    oooooooooooooooooooooooo++++$$$$    oooo    ",
"    XXXXXXXXXXXX    oooooooooooooooooooooooo++++$$$$    oooo    ",
"    XXXXXXXXXXXX    oooooooooooooooooooooooo++++$$$$    oooo    ",
"                oooooooooooo        oooooooooooooooo            ",
"                oooooooooooo        oooooooooooooooo            ",
"                oooooooooooo        oooooooooooooooo            ",
"                oooooooooooo        oooooooooooooooo            ",
"&&&&&&&&    XXXXoooooooo    ::::::::    oooooooo    ::::    &&&&",
"&&&&&&&&    XXXXoooooooo    ::::::::    oooooooo    ::::    &&&&",
"&&&&&&&&    XXXXoooooooo    ::::::::    oooooooo    ::::    &&&&",
"&&&&&&&&    XXXXoooooooo    ::::::::    oooooooo    ::::    &&&&",
"&&&&&&&&    XXXXoooooooo    ::::::::    OOOOOOOO    ::::    &&&&",
"&&&&&&&&    XXXXoooooooo    ::::::::    OOOOOOOO    ::::    &&&&",
"&&&&&&&&    XXXXoooooooo    ::::::::    OOOOOOOO    ::::    &&&&",
"&&&&&&&&    XXXXoooooooo    ::::::::    OOOOOOOO    ::::    &&&&",
"&&&&&&&&    XXXX@@@@ooooXXXX        ;;;;;;;;;;;;====        &&&&",
"&&&&&&&&    XXXX@@@@ooooXXXX        ;;;;;;;;;;;;====        &&&&",
"&&&&&&&&    XXXX@@@@ooooXXXX        ;;;;;;;;;;;;====        &&&&",
"&&&&&&&&    XXXX@@@@ooooXXXX        ;;;;;;;;;;;;====        &&&&",
"&&&&&&&&    XXXX@@@@@@@@oooooooooooo;;;;....====....    &&&&&&&&",
"&&&&&&&&    XXXX@@@@@@@@oooooooooooo;;;;....====....    &&&&&&&&",
"&&&&&&&&    XXXX@@@@@@@@oooooooooooo;;;;....====....    &&&&&&&&",
"&&&&&&&&    XXXX@@@@@@@@oooooooooooo;;;;....====....    &&&&&&&&",
"&&&&&&&&&&&&                                        &&&&&&&&&&&&",
"&&&&&&&&&&&&                                        &&&&&&&&&&&&",
"&&&&&&&&&&&&                                        &&&&&&&&&&&&",
"&&&&&&&&&&&&                                        &&&&&&&&&&&&",
"&&&&&&&&&&&&&&&&    XXXXXXXXXXXX++++XXXXXXXX    &&&&&&&&&&&&&&&&",
"&&&&&&&&&&&&&&&&    XXXXXXXXXXXX++++XXXXXXXX    &&&&&&&&&&&&&&&&",
"&&&&&&&&&&&&&&&&    XXXXXXXXXXXX++++XXXXXXXX    &&&&&&&&&&&&&&&&",
"&&&&&&&&&&&&&&&&    XXXXXXXXXXXX++++XXXXXXXX    &&&&&&&&&&&&&&&&",
"&&&&&&&&&&&&%%%%    @@@@@@@@@@@@oooooooo****    &&&&&&&&&&&&&&&&",
"&&&&&&&&&&&&%%%%    @@@@@@@@@@@@oooooooo****    &&&&&&&&&&&&&&&&",
"&&&&&&&&&&&&%%%%    @@@@@@@@@@@@oooooooo****    &&&&&&&&&&&&&&&&",
"&&&&&&&&&&&&%%%%    @@@@@@@@@@@@oooooooo****    &&&&&&&&&&&&&&&&",
"&&&&&&&&%%%%%%%%                                %%%%&&&&&&&&&&&&",
"&&&&&&&&%%%%%%%%                                %%%%&&&&&&&&&&&&",
"&&&&&&&&%%%%%%%%                                %%%%&&&&&&&&&&&&",
"&&&&&&&&%%%%%%%%                                %%%%&&&&&&&&&&&&",
"&&&&&&&&%%%%%%%%%%%%%%%%%%%%%%%%%%%%%%%%%%%%%%%%%%%%&&&&&&&&&&&&",
"&&&&&&&&%%%%%%%%%%%%%%%%%%%%%%%%%%%%%%%%%%%%%%%%%%%%&&&&&&&&&&&&",
"&&&&&&&&%%%%%%%%%%%%%%%%%%%%%%%%%%%%%%%%%%%%%%%%%%%%&&&&&&&&&&&&",
"&&&&&&&&%%%%%%%%%%%%%%%%%%%%%%%%%%%%%%%%%%%%%%%%%%%%&&&&&&&&&&&&",
"&&&&&&&&&&&&%%%%%%%%%%%%%%%%%%%%%%%%%%%%%%%%%%%%&&&&&&&&&&&&&&&&",
"&&&&&&&&&&&&%%%%%%%%%%%%%%%%%%%%%%%%%%%%%%%%%%%%&&&&&&&&&&&&&&&&",
"&&&&&&&&&&&&%%%%%%%%%%%%%%%%%%%%%%%%%%%%%%%%%%%%&&&&&&&&&&&&&&&&",
"&&&&&&&&&&&&%%%%%%%%%%%%%%%%%%%%%%%%%%%%%%%%%%%%&&&&&&&&&&&&&&&&"
};
