/* XPM */
static char *result[] = {
/* columns rows colors chars-per-pixel */
"64 64 16 1 ",
"  c black",
". c #80133B",
"X c #AD7253",
"o c #BD7653",
"O c #B97A57",
"+ c #C27E5B",
"@ c #CA9436",
"# c #E3AC3D",
"$ c #DE916A",
"% c #E187A8",
"& c #E09FB6",
"* c #EB9DBA",
"= c #D4D2D4",
"- c gray88",
"; c #EBE8EB",
": c white",
/* pixels */
"################        ############        ####################",
"################        ############        ####################",
"################        ############        ####################",
"################        ############        ####################",
"############        OOOO                OOOO        ############",
"############        OOOO                OOOO        ############",
"############        OOOO                OOOO        ############",
"############        OOOO                OOOO        ############",
"####        ::::----;;;;oooooooo++++;;;;;;;;::::            ####",
"####        ::::----;;;;oooooooo++++;;;;;;;;::::            ####",
"####        ::::----;;;;oooooooo++++;;;;;;;;::::            ####",
"####        ::::----;;;;oooooooo++++;;;;;;;;::::            ####",
"    ::::::::&&&&&&&&;;;;;;;;oooo++++;;;;;;;;::::++++    ::::    ",
"    ::::::::&&&&&&&&;;;;;;;;oooo++++;;;;;;;;::::++++    ::::    ",
"    ::::::::&&&&&&&&;;;;;;;;oooo++++;;;;;;;;::::++++    ::::    ",
"    ::::::::&&&&&&&&;;;;;;;;oooo++++;;;;;;;;::::++++    ::::    ",
"    ====----====    ;;;;;;;;;;;;;;;;;;;;;;;;XXXX++++    ;;;;    ",
"    ====----====    ;;;;;;;;;;;;;;;;;;;;;;;;XXXX++++    ;;;;    ",
"    ====----====    ;;;;;;;;;;;;;;;;;;;;;;;;XXXX++++    ;;;;    ",
"    ====----====    ;;;;;;;;;;;;;;;;;;;;;;;;XXXX++++    ;;;;    ",
"                ;;;;;;;;;;;;        ;;;;;;;;;;;;::::            ",
"                ;;;;;;;;;;;;        ;;;;;;;;;;;;::::            ",
"                ;;;;;;;;;;;;        ;;;;;;;;;;;;::::            ",
"                ;;;;;;;;;;;;        ;;;;;;;;;;;;::::            ",
"########    ====;;;;;;;;    ::::::::    ----;;;;    ::::    ####",
"########    ====;;;;;;;;    ::::::::    ----;;;;    ::::    ####",
"########    ====;;;;;;;;    ::::::::    ----;;;;    ::::    ####",
"########    ====;;;;;;;;    ::::::::    ----;;;;    ::::    ####",
"########    ====;;;;;;;;    ::::::::    ::::::::    ::::    ####",
"########    ====;;;;;;;;    ::::::::    ::::::::    ::::    ####",
"########    ====;;;;;;;;    ::::::::    ::::::::    ::::    ####",
"########    ====;;;;;;;;    ::::::::    ::::::::    ::::    ####",
"########    XXXXoooo;;;;====        ************%%%%        ####",
"########    XXXXoooo;;;;====        ************%%%%        ####",
"########    XXXXoooo;;;;====        ************%%%%        ####",
"########    XXXXoooo;;;;====        ************%%%%        ####",
"########    XXXXoooooooo;;;;========****....%%%%....    ########",
"########    XXXXoooooooo;;;;========****....%%%%....    ########",
"########    XXXXoooooooo;;;;========****....%%%%....    ########",
"########    XXXXoooooooo;;;;========****....%%%%....    ########",
"############                                        ############",
"############                                        ############",
"############                                        ############",
"############                                        ############",
"################    ====XXXXXXXXXXXX========    ################",
"################    ====XXXXXXXXXXXX========    ################",
"################    ====XXXXXXXXXXXX========    ################",
"################    ====XXXXXXXXXXXX========    ################",
"############@@@@    oooooooooooo;;;;;;;;$$$$    ################",
"############@@@@    oooooooooooo;;;;;;;;$$$$    ################",
"############@@@@    oooooooooooo;;;;;;;;$$$$    ################",
"############@@@@    oooooooooooo;;;;;;;;$$$$    ################",
"########@@@@@@@@                                @@@@############",
"########@@@@@@@@                                @@@@############",
"########@@@@@@@@                                @@@@############",
"########@@@@@@@@                                @@@@############",
"########@@@@@@@@@@@@@@@@@@@@@@@@@@@@@@@@@@@@@@@@@@@@############",
"########@@@@@@@@@@@@@@@@@@@@@@@@@@@@@@@@@@@@@@@@@@@@############",
"########@@@@@@@@@@@@@@@@@@@@@@@@@@@@@@@@@@@@@@@@@@@@############",
"########@@@@@@@@@@@@@@@@@@@@@@@@@@@@@@@@@@@@@@@@@@@@############",
"############@@@@@@@@@@@@@@@@@@@@@@@@@@@@@@@@@@@@################",
"############@@@@@@@@@@@@@@@@@@@@@@@@@@@@@@@@@@@@################",
"############@@@@@@@@@@@@@@@@@@@@@@@@@@@@@@@@@@@@################",
"############@@@@@@@@@@@@@@@@@@@@@@@@@@@@@@@@@@@@################"
};
